<svg width="382" height="361" viewBox="0 0 382 361" fill="none" xmlns="http://www.w3.org/2000/svg">
<path opacity="0.21" d="M15.5251 233.623C8.13578 144.253 86.6024 56.1666 178.605 49.1952C270.608 42.2238 342.333 73.8914 349.722 163.261C357.111 252.63 305.567 292.483 213.564 299.455C121.561 306.426 22.9144 322.992 15.5251 233.623Z" fill="url(#paint0_linear_22_999)"/>
<path d="M247.113 88.3603C246.475 80.6385 253.255 73.0275 261.204 72.4252C269.153 71.8228 275.351 74.559 275.989 82.2808C276.628 90.0026 272.174 93.446 264.225 94.0484C256.275 94.6507 247.752 96.0821 247.113 88.3603Z" fill="#F89945"/>
<path opacity="0.21" d="M22.189 61.2087C10.5923 51.6123 9.68679 32.1194 20.145 20.5373C30.6032 8.95527 43.1942 4.26903 54.7909 13.8654C66.3875 23.4618 64.828 34.1584 54.3698 45.7404C43.9116 57.3225 33.7856 70.805 22.189 61.2087Z" fill="url(#paint1_linear_22_999)"/>
<path opacity="0.21" d="M361.261 287.382C372.1 297.758 368.019 320.621 352.924 335.071C337.829 349.522 317.792 351.64 311.25 345.651C304.709 339.662 305.02 322.567 320.115 308.117C335.21 293.666 350.422 277.006 361.261 287.382Z" fill="url(#paint2_linear_22_999)"/>
<path d="M67.908 235.242C62.0578 240.321 51.9015 239.879 46.7054 234.394C41.5093 228.909 40.0443 222.719 45.8945 217.64C51.7447 212.561 57.1611 213.78 62.3572 219.266C67.5533 224.751 73.7582 230.164 67.908 235.242Z" fill="url(#paint3_linear_22_999)"/>
<path d="M198.807 204.88C198.807 204.88 195.149 215.954 196.712 219.354C198.275 222.753 240.171 249.677 272.766 253.621C273.247 253.675 273.734 253.632 274.197 253.494C274.66 253.356 275.088 253.126 275.454 252.82C278.143 250.569 284.537 244.918 285.428 241.277C286.569 236.653 261.666 242.289 198.807 204.88Z" fill="#F89945"/>
<path d="M207.816 218.43C210.952 221.72 215.436 220.083 218.164 223.163C220.893 226.242 221.41 227.129 225.142 226.483C225.832 226.362 226.443 227.023 226.882 227.384C230.379 230.178 232.323 231.741 237.748 232.221C238.887 232.206 239.996 232.573 240.884 233.258C243.605 235.143 246.946 236.023 250.291 235.737C250.528 235.726 250.763 235.767 250.981 235.857C253.317 236.924 253.537 238.681 255.685 240.184C258.993 242.452 262.05 244.525 265.86 241.956C266.476 241.644 267.186 241.548 267.867 241.686C271.819 242.347 271.27 246.523 276.428 244.69C279.094 243.774 279.909 246.027 281.32 247.079C283.136 245.391 284.539 243.339 285.428 241.07C286.573 236.473 261.596 242.076 198.55 204.88C197.593 207.832 196.85 210.844 196.323 213.893C198.268 217.829 205.119 215.636 207.816 218.43Z" fill="#D77124"/>
<path opacity="0.55" d="M249.002 242.645C245.918 238.492 241.896 232.503 241.546 227.115C227.248 221.258 213.404 214.455 200.116 206.755C200.116 206.755 197.207 215.784 198.717 218.658C199.926 220.946 225.744 237.002 251.18 245.203C250.369 244.376 249.67 243.533 249.002 242.645Z" fill="#CD4200"/>
<path d="M245.922 201.233C245.922 201.233 208.55 189.232 205.08 192.232C201.611 195.233 199.041 202.928 200.823 206.183C202.605 209.439 238.542 225.415 244.234 228.415C266.058 239.936 283.388 238.346 284.366 238.631C285.344 238.916 294.742 232.075 291.73 223.78C288.923 215.994 252.292 204.518 245.922 201.233Z" fill="#BE5B2A"/>
<path d="M247.576 221.568C244.495 217.54 242.051 213.103 240.321 208.399C239.466 205.218 238.872 201.979 238.543 198.71C230.674 196.355 218.367 192.831 210.955 191.751C207.194 198.845 206.879 205.88 211.458 212.749C222.915 218.928 239.943 226.922 244.082 228.137C245.923 228.677 250.141 229.772 255.098 231.137C252.356 228.121 249.842 224.924 247.576 221.568Z" fill="#AE4D25"/>
<path d="M231.058 203.227C236.912 205.657 241.355 209.496 246.55 212.946C250.892 215.641 255.011 218.649 258.872 221.946C261.901 224.72 266.971 233.36 271.429 230.6C274.773 228.5 278.807 228.68 282.574 228.185C285.778 227.711 289.044 227.772 292.227 228.365C292.449 226.805 292.283 225.217 291.741 223.73C288.947 215.991 252.499 204.517 246.142 201.232C246.142 201.232 208.941 189.233 205.488 192.232C204.572 193.07 203.794 194.036 203.18 195.097C213.007 196.177 221.891 199.357 231.058 203.227Z" fill="#953E25"/>
<path d="M199.28 204.885C202.068 204.843 204.853 205.057 207.597 205.523C210.505 206.205 216.884 211.874 224.794 213.922C232.705 215.97 230.188 220.036 239.459 222.158C248.73 224.28 249.543 228.421 252.701 228.777C255.859 229.133 263.551 233.303 265.083 234.505C266.615 235.707 278.669 234.282 281.67 236.449C284.672 238.615 289.253 237.28 289.362 238.912C289.471 240.545 289.362 244.225 284.297 243.127C279.231 242.029 276.261 242.667 274.635 240.886C273.009 239.105 258.876 240.099 258.298 237.71C257.719 235.321 252.81 233.407 248.355 232.116C243.899 230.825 242.93 228.821 237.411 227.664C231.892 226.506 225.748 221.342 223.059 221.416C220.37 221.49 213.054 219.309 212.022 217.098C210.99 214.887 205.565 211.384 203.658 211.503C201.75 211.622 199.014 205.998 199.28 204.885Z" fill="#7BB027"/>
<path d="M205.011 203.629C205.011 203.508 205.011 203.373 205.183 203.538C205.695 203.423 206.223 203.382 206.748 203.418V203.282C207.389 203.388 208.108 203.282 208.719 203.282C208.712 203.248 208.712 203.212 208.719 203.177C210.019 203.649 211.345 204.051 212.692 204.381C213.896 204.998 215.132 206.668 213.536 207.54C212.801 207.931 211.972 207.661 211.659 208.624C211.593 208.994 211.61 209.374 211.71 209.737C211.81 210.101 211.99 210.439 212.238 210.73C213.737 211.865 215.438 212.727 217.259 213.273C218.652 213.739 221.498 214.777 222.421 213.077C222.797 212.641 222.14 211.964 222.296 211.392C222.415 211.077 222.626 210.802 222.904 210.599C223.181 210.396 223.513 210.274 223.86 210.248C224.632 210.545 225.443 210.737 226.269 210.82C227.229 211.284 228.235 211.652 229.273 211.918C230.125 212.331 230.951 212.793 231.744 213.303C232.151 213.799 232.542 214.416 232.98 214.807C233.418 215.198 233.543 216.567 232.792 217.169C232.339 217.53 231.666 217.29 231.228 217.38C230.685 217.536 230.16 217.748 229.664 218.012C229.598 218.267 229.589 218.534 229.637 218.793C229.686 219.052 229.791 219.299 229.945 219.516C230.086 219.652 230.18 219.667 230.29 219.923C232.339 220.6 233.997 222.24 236.109 222.706C236.224 222.821 236.367 222.908 236.525 222.958C236.683 223.007 236.852 223.019 237.016 222.992C237.469 223.267 237.966 223.47 238.486 223.594V223.443C238.535 223.513 238.607 223.566 238.69 223.594C238.705 223.568 238.713 223.54 238.713 223.511C238.713 223.482 238.705 223.453 238.69 223.428C240.254 223.428 238.205 221.412 238.017 220.916C237.344 219.2 239.581 219.411 240.723 219.652C243.601 220.389 247.559 221.954 249.17 224.602C249.036 225.109 248.706 225.547 248.246 225.827C247.786 226.107 247.232 226.207 246.699 226.106C246.37 226.257 245.682 226.377 245.259 226.588C245.259 226.588 245.103 226.919 245.04 227.009C245.184 227.24 245.358 227.452 245.557 227.641C245.916 228.288 247.121 228.559 247.606 228.784C247.696 228.845 247.797 228.891 247.903 228.92C248.16 229.092 248.439 229.234 248.732 229.341V229.19C249.139 229.386 249.984 229.491 250.296 228.92C251.548 228.258 250.515 225.655 252.846 226.573C254.176 227.084 255.646 228.513 257.07 227.701C258.102 227.851 258.884 227.806 259.635 228.528C260.104 230.725 258.196 230.815 256.506 231.538L256.334 231.628C256.334 231.808 256.194 231.989 256.131 232.169C256.068 232.35 256.209 232.365 256.225 232.47C256.241 232.432 256.241 232.389 256.225 232.35C256.397 232.982 257.789 234.005 258.321 233.854C259.557 235.224 262.013 233.418 263.295 232.786C264.139 232.298 265.043 231.914 265.986 231.643C267.034 231.417 267.644 231.959 268.52 231.914C269.578 232.628 270.368 233.652 270.772 234.832C271.07 235.81 270.772 237.39 272.118 237.661C275.543 239.978 279.657 234.652 283.177 234.547C283.407 234.522 283.64 234.541 283.863 234.603C284.086 234.665 284.293 234.769 284.473 234.909C284.654 235.049 284.804 235.222 284.914 235.418C285.024 235.614 285.093 235.829 285.117 236.051C285.242 236.909 284.585 237.646 284.694 238.473C284.729 238.676 284.807 238.869 284.923 239.042C285.039 239.214 285.19 239.362 285.367 239.476C285.544 239.59 285.744 239.668 285.954 239.705C286.164 239.742 286.379 239.738 286.587 239.692C287.573 239.496 287.885 238.519 288.683 238.112C289.138 237.859 289.666 237.755 290.187 237.815C290.709 237.875 291.196 238.097 291.575 238.447C291.955 238.796 292.206 239.255 292.291 239.754C292.376 240.252 292.29 240.764 292.046 241.212C291.428 242.028 290.637 242.71 289.726 243.213C288.815 243.716 287.804 244.028 286.759 244.13C285.671 244.875 284.355 245.251 283.021 245.199C282.67 245.141 282.339 245.006 282.052 244.805C281.765 244.603 281.531 244.341 281.367 244.038C281.204 243.735 281.115 243.399 281.109 243.058C281.103 242.716 281.179 242.378 281.331 242.069C281.738 240.941 282.817 239.406 281.832 238.428C281.585 238.26 281.307 238.141 281.012 238.076C280.718 238.012 280.413 238.004 280.115 238.052C279.817 238.101 279.532 238.206 279.277 238.361C279.021 238.516 278.8 238.718 278.625 238.955C277.876 239.689 277.229 240.513 276.701 241.407C276.111 242.161 275.392 242.812 274.574 243.333C274.339 243.333 274.323 243.333 274.229 243.438C271.461 243.438 269.74 240.775 270.084 238.052C269.646 236.954 269.083 234.577 267.441 236.548C266.965 237.244 266.601 238.004 266.361 238.804C265.915 239.469 265.517 240.163 265.172 240.881C264.454 241.362 263.611 241.645 262.737 241.698C261.862 241.751 260.99 241.573 260.214 241.182C258.227 240.321 256.503 238.985 255.208 237.3C254.113 236.021 253.159 235.043 254.379 233.523C254.723 233.072 255.63 232.32 255.615 231.658C255.583 231.28 255.405 230.928 255.115 230.671C254.825 230.414 254.445 230.272 254.051 230.274C252.158 229.386 251.47 231.778 250.484 232.877C249.814 233.525 248.949 233.954 248.011 234.103C247.073 234.252 246.11 234.112 245.259 233.704C243.93 233.238 239.878 231.492 240.833 229.702C241.239 228.905 242.506 228.859 243.007 228.197C243.233 227.764 243.304 227.27 243.207 226.794C243.111 226.318 242.854 225.885 242.475 225.565C241.975 225.008 239.706 223.699 239.706 225.158C239.503 225.534 239.706 226.181 239.597 226.663C239.403 227.154 239.241 227.657 239.112 228.167C238.439 228.438 238.048 229.221 237.548 229.582C236.917 230.044 236.163 230.326 235.373 230.394C235.197 230.373 235.018 230.373 234.842 230.394C232.563 229.489 230.534 228.088 228.913 226.302C228.339 225.695 227.888 224.991 227.583 224.226C227.38 223.248 228.225 222.555 228.193 221.593C228.193 219.953 225.206 217.726 224.596 220.088C224.298 221.292 224.971 222.134 224.345 223.353C223.939 224.12 223.469 224.857 222.468 224.857V224.948C217.65 224.301 222.578 219.185 219.793 217.29C218.902 216.688 216.555 215.966 215.539 216.537C213.974 217.41 215.898 219.215 213.974 219.968L213.599 219.847C211.55 219.441 208.906 217.44 209.25 215.108C209.391 214.205 210.47 213.604 210.486 212.746C210.307 211.924 209.802 211.201 209.078 210.73C208.861 210.466 208.572 210.266 208.243 210.151C207.915 210.037 207.559 210.013 207.217 210.083C206.169 210.248 206.153 210.82 206.2 211.738C206.325 213.919 206.075 215.033 203.963 216.146C203.069 216.037 202.207 215.754 201.43 215.314C200.652 214.875 199.976 214.287 199.442 213.588C198.723 212.385 199.442 210.339 199.442 209.075C199.27 208.112 197.143 207.36 196.314 207.179C192.826 205.178 194.296 199.551 198.52 201.552C199.985 202.523 201.173 203.832 201.977 205.359C202.759 206.412 204.714 208.368 205.95 206.592C206.935 205.208 204.98 204.622 205.074 203.358C205.168 203.373 204.792 203.659 205.011 203.629Z" fill="#9FCC29"/>
<path d="M220.233 186.478C220.233 186.478 206.509 184.831 200.242 188.645L200.649 191.063C200.649 191.063 222.709 194.98 236.887 203.646C251.066 212.311 265.747 223.261 269.679 227.386C269.679 227.386 286.224 219.967 300.027 226.807L301.139 224.567C298.705 221.013 295.413 218.058 291.535 215.946C285.534 212.86 241.823 200.455 220.233 186.478Z" fill="#FFCF08"/>
<path d="M275.946 223.192C272.812 223.69 270.243 224.233 270.243 224.233C256.143 213.191 245.708 204.623 234.349 199.464C223.449 194.456 212.011 190.612 200.242 188L200.649 190.459C200.649 190.459 222.709 194.441 236.887 203.251C251.066 212.06 265.747 223.192 269.679 227.386C269.679 227.386 286.224 219.844 300.027 226.798L301.139 224.52C289.498 219.723 280.066 222.514 275.946 223.192Z" fill="url(#paint4_linear_22_999)"/>
<path d="M295.141 210.485C295.572 210.964 295.888 211.526 296.068 212.132C296.248 212.737 296.288 213.372 296.185 213.993C295.615 215.696 293.495 218.712 292.324 218.936C289.793 219.398 244.288 204.542 212.137 186.088C212.137 186.088 211.299 185.057 213.719 178.622C213.719 178.622 221.884 186.476 257.927 201.018C286.517 212.47 295.141 210.485 295.141 210.485Z" fill="#E72124"/>
<g style="mix-blend-mode:multiply" opacity="0.55">
<path d="M253.487 203.376C260.834 206.322 268.337 208.903 275.964 211.11C282.689 213.275 288.504 214.962 295.228 213.962C295.304 213.359 295.25 212.747 295.069 212.164C294.889 211.582 294.585 211.04 294.178 210.573C294.178 210.573 285.636 212.499 257.359 201.017C221.652 186.535 213.564 178.622 213.564 178.622C212.888 180.314 212.364 182.057 211.997 183.833C224.239 192.836 239.631 197.33 253.487 203.376Z" fill="#C42124"/>
</g>
<path d="M269.115 166.926C261.497 163.616 253.465 161.259 245.216 159.915C239.675 158.858 233.994 158.649 228.385 159.297C223.309 159.969 218.584 162.153 214.881 165.539C213.29 167.25 212.142 169.294 211.528 171.507C210.914 173.72 210.853 176.039 211.348 178.279C212.925 186.135 282.823 214.556 295.758 212.249C295.758 212.249 301.232 209.867 302.068 202.418C302.462 198.513 300.49 193.824 298.503 190.507C295.207 185.316 290.978 180.722 286.009 176.937C280.856 172.914 275.176 169.549 269.115 166.926Z" fill="#F89945"/>
<path d="M283.492 201.261C272.329 199.772 263.158 194.545 253.022 190.257C242.602 185.79 231.471 182.126 222.158 175.753C218.031 172.909 215.232 170.124 214.599 166.431C213.109 168.113 212.042 170.09 211.477 172.215C210.913 174.34 210.867 176.557 211.342 178.701C212.923 186.46 282.986 214.529 295.952 212.251C297.687 211.316 299.155 209.998 300.229 208.411C301.303 206.823 301.952 205.013 302.119 203.137C295.983 203.778 290.133 202.199 283.492 201.261Z" fill="#E8761F"/>
<g style="mix-blend-mode:screen" opacity="0.32">
<path d="M269.591 170.828C267.651 169.043 261.666 165.489 259.432 168.601C257.508 171.287 262.791 174.497 264.585 175.447C266.623 176.544 270.129 177.642 271.401 175.611C272.363 174.055 271.206 172.286 269.591 170.828Z" fill="#FDE5C1"/>
</g>
<g style="mix-blend-mode:screen" opacity="0.32">
<path d="M282.694 184.472C277.963 181.755 272.306 179.56 267.282 180.904C263.151 181.979 265.17 185.025 267.436 187.025C270.963 190.203 275.114 192.661 279.643 194.251C282.633 195.221 288.043 196.998 289.291 193.057C289.415 192.454 289.415 191.834 289.291 191.232C289.166 190.63 288.92 190.058 288.567 189.548C286.941 187.527 284.952 185.808 282.694 184.472Z" fill="#FDE5C1"/>
</g>
<path d="M247.262 168.717C247.262 169.508 246.215 170.182 244.864 170.182C243.512 170.182 242.393 169.626 242.364 168.834C242.335 168.043 243.425 167.369 244.777 167.369C246.128 167.369 247.247 167.941 247.262 168.717Z" fill="#FBD198"/>
<path d="M261.956 187.48C261.956 188.267 260.682 188.938 259.061 188.938C257.439 188.938 256.096 188.369 256.078 187.582C256.061 186.795 257.351 186.124 258.973 186.124C260.595 186.124 261.921 186.664 261.956 187.48Z" fill="#FBD198"/>
<path d="M278.608 193.099C278.608 193.89 277.562 194.564 276.196 194.564C274.83 194.564 273.74 193.993 273.711 193.216C273.682 192.44 274.772 191.751 276.123 191.751C277.475 191.751 278.594 192.322 278.608 193.099Z" fill="#FBD198"/>
<path d="M233.548 167.779C233.548 168.571 232.501 169.245 231.15 169.245C229.798 169.245 228.679 168.673 228.65 167.897C228.621 167.12 229.711 166.431 231.063 166.431C232.414 166.431 233.533 166.944 233.548 167.779Z" fill="#FBD198"/>
<path d="M297.221 194.974C297.221 195.766 295.965 196.44 294.326 196.44C292.687 196.44 291.379 195.868 291.344 195.092C291.309 194.315 292.617 193.626 294.239 193.626C295.86 193.626 297.133 194.213 297.221 194.974Z" fill="#FBD198"/>
<path d="M268.443 185.907C267.826 186.461 266.593 185.907 265.721 184.782C264.849 183.658 264.623 182.207 265.255 181.653C265.886 181.098 267.104 181.653 267.992 182.777C268.879 183.902 269.075 185.369 268.443 185.907Z" fill="#FBD198"/>
<path d="M285.44 188.072C285.21 188.799 283.665 189.128 282.12 188.826C280.576 188.525 279.386 187.716 279.617 186.99C279.848 186.263 281.392 185.935 282.937 186.236C284.482 186.538 285.654 187.36 285.44 188.072Z" fill="#FBD198"/>
<path d="M242.027 179.387C241.391 179.829 240.165 179.387 239.272 178.49C238.379 177.593 238.182 176.424 238.818 175.982C239.453 175.54 240.68 175.982 241.558 176.892C242.436 177.801 242.603 178.945 242.027 179.387Z" fill="#FBD198"/>
<path d="M254.772 180.349C254.177 180.802 252.954 180.187 252.053 178.972C251.152 177.756 250.911 176.412 251.506 175.958C252.102 175.504 253.324 176.12 254.225 177.335C255.126 178.55 255.368 179.895 254.772 180.349Z" fill="#FBD198"/>
<path d="M227.492 173.656C226.974 174.196 225.558 173.926 224.297 173.041C223.037 172.155 222.45 171 222.95 170.46C223.451 169.92 224.884 170.19 226.145 171.075C227.405 171.96 227.993 173.116 227.492 173.656Z" fill="#FBD198"/>
<path d="M278.221 179.408C277.576 179.806 276.351 179.408 275.481 178.4C274.61 177.393 274.433 176.359 275.078 175.961C275.722 175.563 276.948 175.961 277.818 176.969C278.689 177.976 278.866 179.01 278.221 179.408Z" fill="#FBD198"/>
<path d="M292.925 188.747C292.28 189.245 291.055 188.747 290.185 187.488C289.314 186.229 289.121 184.936 289.766 184.439C290.41 183.942 291.652 184.439 292.506 185.698C293.36 186.958 293.57 188.25 292.925 188.747Z" fill="#FBD198"/>
<path d="M254.711 168.117C254.066 168.613 252.841 168.117 251.971 166.862C251.1 165.607 250.923 164.303 251.568 163.808C252.212 163.312 253.438 163.808 254.308 165.063C255.178 166.317 255.356 167.622 254.711 168.117Z" fill="#FBD198"/>
<g style="mix-blend-mode:multiply" opacity="0.35">
<path d="M302.039 201.216C290.154 201.483 276.786 197.557 266.353 193.958C258.809 191.366 250.57 188.551 244.446 183.485C238.322 178.42 235.56 171.784 240.074 164.911C241.252 163.174 242.881 161.747 244.809 160.763C239.4 159.787 233.862 159.607 228.394 160.23C223.316 160.89 218.588 163.036 214.884 166.362C213.292 168.043 212.142 170.052 211.528 172.226C210.914 174.4 210.853 176.678 211.348 178.879C212.926 186.596 282.862 214.518 295.805 212.251C295.805 212.251 301.281 209.911 302.118 202.594C302.123 202.133 302.097 201.673 302.039 201.216Z" fill="#D48745"/>
</g>
<g style="mix-blend-mode:multiply" opacity="0.32">
<path d="M256.516 192.028L252.76 190.364C242.621 185.967 231.83 182.149 222.662 176.042C218.571 173.324 215.786 170.698 215.006 167.369C213.659 168.824 212.721 170.584 212.281 172.484C211.841 174.384 211.913 176.36 212.491 178.225C213.59 182.18 235.729 192.868 257.058 201.129C256.445 198.133 256.263 195.071 256.516 192.028Z" fill="#BA773D"/>
</g>
<path d="M185.548 244.878C185.548 244.878 149.462 216.245 130.346 224.067C111.23 231.888 103.912 235.053 99.6379 244.683C97.0197 250.56 95.3794 270.302 93.9915 276.707C92.6036 283.112 87.6827 297.127 108.596 294.625C129.51 292.124 164.697 245.105 185.548 244.878Z" fill="#F89945"/>
<g style="mix-blend-mode:multiply" opacity="0.35">
<path d="M147.72 223.651H146.775H146.649C146.523 223.976 146.285 224.249 145.975 224.426C145.666 224.602 145.303 224.672 144.946 224.622C138.91 224.03 134.859 225.366 129.074 227.323C126.269 228.264 121.651 230.844 118.562 230.13C118.443 230.085 118.332 230.023 118.231 229.948C117.537 230.13 116.844 230.297 116.182 230.525C111.059 232.179 109.877 234.561 107.576 239.129C106 242.285 102.658 249.751 98.7021 251.815C98.9363 253.985 99.2835 256.142 99.7423 258.279C100.303 260.925 100.41 263.642 100.058 266.321C99.5532 269.22 98.2135 272.057 94.8405 271.951C94.6987 272.892 94.5726 273.742 94.4465 274.515C95.7473 276.709 96.568 279.137 96.858 281.647C96.9841 284.364 96.1014 287.065 96.3851 289.523C98.308 290.661 98.7966 292.36 99.2852 294.394C102.366 295.016 105.54 295.088 108.648 294.606C129.516 292.072 164.711 244.743 185.548 244.531C185.548 244.485 165.751 228.643 147.72 223.651Z" fill="#E09945"/>
</g>
<path d="M111.711 241.335C111.364 241.984 111.159 242.697 111.111 243.428C111.062 244.159 111.172 244.892 111.431 245.58C111.691 246.267 112.095 246.894 112.618 247.419C113.141 247.945 113.772 248.357 114.468 248.631C115.788 249.01 117.183 249.073 118.533 248.813C124.887 247.947 130.571 244.694 136.271 241.837C141.971 238.979 148.185 236.395 154.554 237.003C156.298 237.17 158.011 237.581 159.771 237.611C161.533 237.75 163.28 237.204 164.63 236.091C165.944 234.534 166.684 232.591 166.733 230.574C167.028 228.461 167.215 226.014 165.705 224.494C164.77 223.567 163.384 223.187 162.419 222.29C161.442 221.097 160.659 219.764 160.098 218.339C159.215 216.864 157.882 215.694 156.285 214.994C154.688 214.294 152.907 214.098 151.19 214.432C150.474 214.584 149.633 215.086 149.789 215.785C149.944 216.484 150.925 216.545 151.642 216.408C152.358 216.271 153.199 216.104 153.682 216.682C154.165 217.259 153.682 218.202 152.919 218.384C152.197 218.554 151.44 218.517 150.739 218.278C146.499 217.318 142.099 217.246 137.828 218.065C137.096 218.157 136.397 218.418 135.788 218.825C135.49 219.039 135.269 219.339 135.154 219.683C135.04 220.026 135.038 220.396 135.15 220.74C135.679 221.941 137.828 221.971 138.031 223.263C138.054 223.585 137.971 223.906 137.795 224.18C137.618 224.453 137.357 224.664 137.05 224.783C136.432 225.002 135.773 225.085 135.118 225.026L129.325 224.92C128.36 224.211 127.241 223.728 126.055 223.506C125.459 223.411 124.848 223.508 124.314 223.782C123.78 224.056 123.352 224.493 123.096 225.026C122.644 226.303 123.547 227.944 122.644 228.963C122.219 229.306 121.685 229.494 121.133 229.494C120.582 229.494 120.047 229.306 119.623 228.963C118.778 228.268 117.883 227.633 116.944 227.063C116.117 226.752 115.208 226.72 114.36 226.974C113.513 227.227 112.778 227.751 112.272 228.461C111.796 229.179 111.523 230.008 111.482 230.862C111.441 231.717 111.633 232.567 112.039 233.325C112.739 234.723 114.079 235.954 114.001 237.505C113.923 239.055 112.521 239.997 111.711 241.335Z" fill="#9FCC29"/>
<path d="M160.582 222.112C159.695 220.965 159.181 219.591 158.388 218.383C158.035 217.751 157.523 217.214 156.901 216.824C156.278 216.433 155.564 216.201 154.824 216.149C155.068 216.312 155.274 216.523 155.428 216.769C155.581 217.014 155.68 217.289 155.716 217.574C155.753 217.859 155.727 218.149 155.641 218.423C155.554 218.698 155.408 218.952 155.213 219.168C155.083 219.31 154.937 219.436 154.778 219.546C155.162 220.018 155.501 220.523 155.789 221.055C156.412 222.324 156.956 223.622 157.47 224.92C158.232 226.853 159.321 229.057 158.419 231.095C157.516 233.133 154.716 232.394 154.762 230.748C154.706 230.662 154.659 230.571 154.622 230.476C154.053 227.998 153.092 225.62 151.775 223.426C150.81 221.916 149.534 220.754 148.492 219.38C146.132 218.752 143.67 218.572 141.241 218.851C140.634 218.851 139.887 219.138 139.685 219.727C139.482 220.316 140.136 220.829 140.727 221.04C141.347 221.151 141.935 221.388 142.454 221.735C142.62 221.945 142.738 222.186 142.801 222.443C142.863 222.701 142.869 222.968 142.818 223.227C142.766 223.487 142.659 223.733 142.502 223.949C142.346 224.166 142.144 224.347 141.91 224.483C140.93 224.994 139.802 225.175 138.704 224.996C138.026 224.943 137.344 224.943 136.666 224.996C136.451 225.046 136.233 225.081 136.013 225.102C135.809 225.141 135.611 225.202 135.421 225.283C134.494 225.811 133.68 226.508 133.025 227.336C132.692 227.748 132.267 228.082 131.782 228.312C131.297 228.542 130.764 228.662 130.224 228.665C128.668 228.468 127.33 226.506 125.821 227.155C124.311 227.804 124.887 230.491 123.533 231.684C123.111 231.96 122.617 232.115 122.108 232.132C121.598 232.148 121.095 232.024 120.655 231.775C119.737 231.367 118.943 230.703 117.994 230.265C117.539 230.04 117.023 229.956 116.517 230.023C116.011 230.091 115.538 230.307 115.162 230.642C114.853 231.144 114.714 231.727 114.764 232.309C114.814 232.891 115.051 233.444 115.442 233.888C116.252 234.774 116.79 235.862 116.998 237.029C116.998 239.308 113.886 240.441 113.17 242.615C112.966 243.52 113.043 244.464 113.392 245.327C113.741 246.189 114.346 246.932 115.131 247.461C115.988 248.113 116.95 248.623 117.979 248.971L118.585 248.895C124.934 248.035 130.613 244.804 136.308 241.965C142.003 239.127 148.212 236.56 154.576 237.164C156.318 237.33 158.03 237.738 159.788 237.768C161.548 237.906 163.293 237.364 164.643 236.259C165.955 234.711 166.695 232.782 166.743 230.778C166.928 229.701 166.98 228.606 166.899 227.517C165.141 225.419 162.262 224.256 160.582 222.112Z" fill="#73A624"/>
<path d="M105.222 252.652C105.222 252.652 107.572 240.51 107.854 238.655C107.854 238.655 115.83 243.698 123.758 242.553L131.671 250.87C131.671 250.87 114.999 257.898 105.222 252.652Z" fill="#FFCF08"/>
<g style="mix-blend-mode:multiply" opacity="0.35">
<path d="M123.352 243.344L122.555 243.433C121.887 245.061 120.795 246.511 119.375 247.651C117.955 248.792 116.252 249.589 114.418 249.969C113.078 250.161 111.708 250.02 110.447 249.56C109.185 249.1 108.078 248.338 107.239 247.352C106.696 250.221 106.202 252.794 106.202 252.794C115.248 257.659 130.691 251.138 130.691 251.138L123.352 243.344Z" fill="#E6B970"/>
</g>
<path d="M108.811 239.593C108.53 241.622 106.202 254.188 106.202 254.188C106.905 254.582 106.842 254.325 107.608 254.597C107.358 250.706 110.233 242.182 110.233 242.182C119.907 244.726 125.033 244.801 123.595 243.151C118.454 243.058 113.4 241.841 108.811 239.593Z" fill="url(#paint5_linear_22_999)"/>
<path d="M115.036 254.289C115.051 254.391 115.051 254.495 115.036 254.597C120.773 254.265 126.404 252.972 131.671 250.778L128.248 248.971C124.471 249.881 114.542 251.6 115.036 254.289Z" fill="url(#paint6_linear_22_999)"/>
<path d="M123.816 263.065C123.892 260.965 123.725 258.864 123.319 256.799C123.179 255.875 123.023 254.935 122.883 253.995C122.743 253.055 122.028 252.697 121.219 252.757C120.42 252.916 119.63 253.12 118.856 253.368C117.114 253.726 115.419 252.757 113.817 252.011C110.909 250.654 107.72 249.94 104.486 249.923C103.015 249.835 101.548 250.151 100.256 250.833C99.6191 251.192 99.1184 251.738 98.8275 252.39C98.5365 253.042 98.4705 253.767 98.639 254.457C99.3544 256.635 102.713 257.113 103.553 259.261C103.693 259.619 103.709 260.111 103.351 260.305C102.993 260.499 102.542 260.2 102.216 259.932C100.788 258.674 99.001 257.853 97.0839 257.575C96.1163 257.448 95.1316 257.527 94.1991 257.805C93.2667 258.084 92.4094 258.555 91.6876 259.186C90.9786 259.837 90.481 260.67 90.2547 261.586C90.0285 262.502 90.0832 263.461 90.4124 264.347C90.7852 265.214 91.4669 265.925 92.3356 266.354C93.2044 266.783 94.2038 266.902 95.1555 266.689C96.1508 266.421 97.2705 265.75 98.1103 266.331C98.267 266.488 98.3862 266.676 98.4596 266.881C98.5329 267.086 98.5586 267.305 98.5349 267.521C98.5112 267.736 98.4387 267.945 98.3224 268.131C98.2061 268.317 98.0488 268.477 97.8615 268.599C97.4594 268.828 97.0087 268.967 96.5429 269.005C96.0771 269.044 95.6082 268.982 95.1711 268.823C94.2757 268.519 93.3548 268.289 92.4185 268.136C91.4773 268.08 90.5411 268.305 89.7389 268.781C88.9367 269.256 88.3081 269.959 87.9398 270.792C87.6051 271.634 87.5079 272.547 87.6581 273.438C87.8082 274.328 88.2004 275.165 88.7951 275.863C89.4101 276.547 90.1716 277.096 91.0278 277.472C91.8839 277.847 92.8144 278.042 93.7559 278.041C95.5859 277.887 97.3913 277.532 99.1367 276.982C103.958 275.923 109.152 276.788 113.864 275.297C116.569 274.386 118.946 272.749 120.71 270.58C122.474 268.412 123.552 265.803 123.816 263.065Z" fill="#9FCC29"/>
<path d="M100.438 266.767C100.87 268.047 99.6959 269.389 98.398 269.851C97.0585 270.101 95.69 270.158 94.3343 270.021C93.6596 269.956 92.9795 270.064 92.3579 270.334C91.7363 270.604 91.1935 271.027 90.7805 271.563C90.4617 272.312 90.4444 273.154 90.7322 273.915C91.02 274.677 91.5907 275.298 92.3256 275.65C93.8451 276.28 95.5429 276.335 97.1001 275.804C99.9895 275.017 102.647 273.429 105.598 272.874C107.576 272.488 109.616 272.596 111.624 272.349C113.66 272.245 115.578 271.367 116.986 269.897C117.894 268.666 118.502 267.24 118.763 265.734C119.734 261.67 120.446 257.55 120.895 253.397C118.315 254.661 115.426 255.972 112.644 255.216C111.541 254.864 110.498 254.344 109.554 253.674C108.598 253 107.56 252.45 106.464 252.04C105.91 251.841 105.323 251.757 104.736 251.791C104.149 251.826 103.575 251.978 103.049 252.24C102.531 252.524 102.123 252.973 101.89 253.515C101.658 254.057 101.614 254.662 101.766 255.232C101.997 255.702 102.33 256.114 102.742 256.437C103.154 256.76 103.634 256.986 104.146 257.098C105.169 257.296 106.172 257.585 107.144 257.961C107.616 258.17 108.016 258.515 108.292 258.952C108.567 259.389 108.705 259.898 108.689 260.413C108.594 260.824 108.393 261.202 108.105 261.511C107.818 261.819 107.454 262.047 107.051 262.171C105.703 262.558 104.258 262.426 103.003 261.801C101.72 261.277 100.53 260.521 99.2324 260.043C98.5941 259.765 97.9049 259.621 97.2083 259.621C96.5116 259.621 95.8224 259.765 95.1841 260.043C94.5805 260.365 94.1247 260.908 93.9117 261.557C93.6987 262.206 93.7449 262.912 94.0407 263.528C94.4664 263.99 94.9852 264.357 95.5632 264.604C96.1411 264.851 96.765 264.974 97.3937 264.963C98.6762 265.148 100.051 265.564 100.438 266.767Z" fill="#73A624"/>
<path d="M106.202 274.521C106.199 274.919 106.313 275.309 106.532 275.652C106.752 275.995 107.068 276.278 107.448 276.472C108.209 276.866 109.067 277.075 109.942 277.078C112.4 277.22 114.857 276.772 117.066 275.777C119.795 274.573 121.944 272.496 123.106 269.941C123.671 268.669 123.913 267.297 123.812 265.927C123.711 264.558 123.27 263.227 122.523 262.036C121.745 260.859 120.634 259.896 119.305 259.248C117.977 258.6 116.482 258.292 114.977 258.357C113.876 258.445 112.597 258.962 112.516 259.967C112.435 260.972 113.65 261.652 114.136 262.582C114.292 262.914 114.348 263.278 114.3 263.636C114.252 263.994 114.1 264.334 113.86 264.622C113.611 264.903 113.286 265.121 112.917 265.253C112.548 265.385 112.148 265.427 111.755 265.375C110.428 265.198 109.327 263.898 108.015 264.178C107.51 264.311 107.071 264.6 106.775 264.997C106.479 265.394 106.345 265.873 106.396 266.35C106.537 267.283 106.849 268.187 107.319 269.025C107.792 269.867 107.924 270.836 107.691 271.758C107.416 272.748 106.347 273.487 106.202 274.521Z" fill="#9FCC29"/>
<path d="M121.552 261.956C120.737 261.793 119.969 261.466 119.299 260.997C118.629 260.523 117.822 260.254 116.986 260.224C116.575 260.223 116.179 260.371 115.878 260.637C115.578 260.902 115.395 261.267 115.368 261.655C115.368 262.242 115.958 262.686 116.26 263.202C116.468 263.556 116.577 263.956 116.577 264.361C116.577 264.767 116.468 265.166 116.26 265.521C116.039 265.868 115.729 266.157 115.36 266.362C114.99 266.567 114.572 266.682 114.144 266.695C113.531 266.64 112.923 266.535 112.33 266.38C111.997 266.266 111.635 266.256 111.296 266.352C110.958 266.448 110.66 266.644 110.449 266.912C110.237 267.18 110.121 267.505 110.12 267.84C110.118 268.175 110.23 268.501 110.44 268.771C111.046 270.042 112.121 271.06 113.463 271.634C114.796 272.234 116.27 272.496 117.742 272.393C119.535 272.368 121.273 271.801 122.701 270.775C123.408 270.223 123.968 269.52 124.333 268.723C124.698 267.927 124.859 267.06 124.803 266.194C124.723 265.331 124.363 264.513 123.773 263.852C123.183 263.191 122.391 262.718 121.507 262.5L121.552 261.956Z" fill="#73A624"/>
<path d="M152.377 231.21L154.771 235.842L175.752 234.869L175.298 231.071C175.298 231.071 168.837 222.256 161.811 221.808C154.786 221.361 151.516 225.529 152.377 231.21Z" fill="#D12424"/>
<path d="M152.38 231.153H175.752C175.752 231.153 169.163 222.261 162 221.81C154.837 221.358 151.502 225.422 152.38 231.153Z" fill="#EA3333"/>
<path d="M157.922 228.617C158.657 228.909 161.117 230.753 161.405 230.8C160.757 229.73 160.036 228.703 159.248 227.726C159.248 227.726 160.734 226.189 165.079 227.864C165.079 227.864 164.281 229.509 165.527 230.4C166.773 231.291 166.741 228.479 166.661 228.079C166.581 227.68 169.617 228.755 171.215 231.03H175.752C175.752 231.03 169.154 222.254 161.98 221.808C154.806 221.363 151.467 225.497 152.394 231.153H156.995C157.091 230.093 157.41 228.402 157.922 228.617Z" fill="#C91D1D"/>
<path d="M160.542 225.236C162.925 225.081 165.308 225.535 167.449 226.553C169.59 227.571 171.413 229.115 172.732 231.03H175.752C175.752 231.03 169.154 222.254 161.98 221.808C154.806 221.363 151.467 225.497 152.394 231.153H154.582C154.327 226.296 157.331 225.374 160.542 225.236Z" fill="#FF3333"/>
<path d="M159.099 229.933C159.099 230.172 158.961 230.284 158.701 230.172C158.559 230.116 158.433 230.032 158.332 229.925C158.231 229.818 158.159 229.691 158.12 229.554C158.12 229.315 158.273 229.217 158.533 229.315C158.673 229.372 158.796 229.456 158.894 229.564C158.993 229.671 159.063 229.797 159.099 229.933Z" fill="#FF7E70"/>
<path d="M162.038 228.978C162.038 229.22 161.906 229.341 161.643 229.244C161.495 229.189 161.364 229.105 161.262 229C161.16 228.895 161.091 228.771 161.058 228.639C161.058 228.397 161.19 228.276 161.453 228.373C161.6 228.43 161.73 228.514 161.831 228.619C161.933 228.724 162.003 228.847 162.038 228.978Z" fill="#FF7E70"/>
<path d="M163.997 229.905C163.997 230.145 163.873 230.275 163.597 230.188C163.45 230.125 163.323 230.038 163.223 229.933C163.123 229.828 163.053 229.707 163.017 229.578C163.017 229.339 163.142 229.219 163.418 229.306C163.564 229.366 163.691 229.451 163.791 229.555C163.891 229.658 163.962 229.778 163.997 229.905Z" fill="#FF7E70"/>
<path d="M168.895 229.925C168.895 230.153 168.762 230.281 168.497 230.181C168.354 230.121 168.228 230.036 168.127 229.93C168.027 229.825 167.955 229.702 167.915 229.57C167.915 229.328 168.048 229.214 168.33 229.314C168.473 229.372 168.598 229.457 168.696 229.563C168.794 229.669 168.862 229.793 168.895 229.925Z" fill="#FF7E70"/>
<path d="M119.293 231.329L115.997 234.32L132.708 260.224L136.468 259.64C137.822 257.056 138.528 254.2 138.528 251.302C138.528 248.405 137.822 245.549 136.468 242.965C131.764 234.245 124.771 230.237 119.293 231.329Z" fill="#D12424"/>
<path d="M118.936 231.327L136.43 259.286C137.809 256.731 138.528 253.907 138.528 251.043C138.528 248.179 137.809 245.355 136.43 242.8C131.639 234.21 124.515 230.247 118.936 231.327Z" fill="#EA3333"/>
<path d="M125.861 237.98C126.081 238.867 125.861 241.869 126.018 242.135C126.176 242.401 127.769 239.562 127.769 239.562C127.769 239.562 130.64 241.337 131.949 246.526C131.949 246.526 129.551 245.58 129.488 247.073C129.425 248.567 132.517 248.552 132.895 248.419C133.274 248.286 134.362 251.967 133.021 253.874L136.428 259.286C137.809 256.731 138.528 253.907 138.528 251.043C138.528 248.179 137.809 245.355 136.428 242.8C131.697 234.21 124.52 230.247 118.936 231.327L122.375 236.783C123.589 236.99 125.703 237.359 125.861 237.98Z" fill="#C91D1D"/>
<path d="M131.444 241.041C134.378 245.476 136.838 250.814 134.173 255.693L136.428 259.286C137.809 256.731 138.528 253.907 138.528 251.043C138.528 248.179 137.809 245.355 136.428 242.8C131.697 234.21 124.52 230.247 118.936 231.327L120.514 233.929C125.64 233.619 128.905 237.197 131.444 241.041Z" fill="#FF3333"/>
<path d="M125.447 239.593C125.197 239.593 124.932 239.322 124.854 238.802C124.8 238.6 124.8 238.377 124.855 238.176C124.91 237.975 125.016 237.811 125.15 237.717C125.4 237.717 125.666 237.989 125.759 238.508C125.809 238.713 125.804 238.937 125.746 239.137C125.689 239.337 125.582 239.499 125.447 239.593Z" fill="#FF7E70"/>
<path d="M128.377 242.405C128.234 242.414 128.093 242.379 127.982 242.308C127.872 242.236 127.801 242.133 127.784 242.021C127.736 241.915 127.743 241.799 127.804 241.697C127.864 241.595 127.973 241.517 128.107 241.478C128.363 241.425 128.619 241.595 128.7 241.851C128.748 241.958 128.742 242.076 128.681 242.18C128.621 242.283 128.511 242.364 128.377 242.405Z" fill="#FF7E70"/>
<path d="M129.364 245.213C129.228 245.241 129.091 245.18 128.982 245.044C128.873 244.907 128.8 244.705 128.78 244.48C128.749 244.374 128.732 244.257 128.732 244.138C128.732 244.02 128.748 243.903 128.778 243.796C128.809 243.689 128.854 243.595 128.909 243.52C128.965 243.446 129.03 243.393 129.099 243.365C129.169 243.338 129.241 243.337 129.311 243.362C129.38 243.387 129.446 243.438 129.502 243.511C129.559 243.584 129.604 243.677 129.636 243.783C129.668 243.889 129.685 244.006 129.686 244.124C129.728 244.34 129.718 244.574 129.658 244.777C129.598 244.98 129.492 245.136 129.364 245.213Z" fill="#FF7E70"/>
<path d="M132.304 250.846C132.053 250.846 131.786 250.724 131.707 250.469C131.655 250.362 131.659 250.244 131.718 250.139C131.776 250.035 131.885 249.952 132.022 249.909C132.166 249.905 132.307 249.942 132.417 250.014C132.528 250.086 132.599 250.187 132.619 250.298C132.666 250.403 132.66 250.519 132.602 250.62C132.543 250.722 132.437 250.803 132.304 250.846Z" fill="#FF7E70"/>
<path d="M118.456 230.404L115.018 233.394L132.452 259.286L136.375 258.703C137.79 256.118 138.528 253.26 138.528 250.361C138.528 247.463 137.79 244.605 136.375 242.02C131.467 233.274 124.187 229.268 118.456 230.404Z" fill="#D12424"/>
<path d="M118.936 230.408L136.427 259.286C137.808 256.646 138.528 253.729 138.528 250.769C138.528 247.81 137.808 244.892 136.427 242.252C131.636 233.339 124.53 229.248 118.936 230.408Z" fill="#EA3333"/>
<path d="M125.869 237.266C126.09 238.183 125.869 241.283 126.043 241.557C126.216 241.832 127.776 238.9 127.776 238.9C127.776 238.9 130.659 240.733 131.952 246.093C131.952 246.093 129.556 245.115 129.493 246.658C129.43 248.2 132.519 248.185 132.897 248.062C133.275 247.94 134.362 251.712 133.039 253.682L136.427 259.286C137.808 256.645 138.528 253.726 138.528 250.765C138.528 247.805 137.808 244.885 136.427 242.245C131.699 233.373 124.53 229.28 118.936 230.395L122.387 236.075C123.616 236.243 125.728 236.625 125.869 237.266Z" fill="#C91D1D"/>
<path d="M131.447 240.427C134.394 245.008 136.836 250.536 134.173 255.56L136.427 259.286C137.808 256.645 138.528 253.726 138.528 250.765C138.528 247.805 137.808 244.885 136.427 242.245C131.699 233.373 124.53 229.28 118.936 230.395L120.512 233.098C125.649 232.762 128.91 236.549 131.447 240.427Z" fill="#FF3333"/>
<path d="M124.482 238.655C124.228 238.655 123.942 238.519 123.863 238.268C123.784 238.018 123.863 237.756 124.165 237.722C124.466 237.688 124.689 237.847 124.784 238.109C124.879 238.371 124.736 238.61 124.482 238.655Z" fill="#FF7E70"/>
<path d="M128.043 242.403C127.758 242.422 127.474 242.354 127.25 242.214C127.026 242.074 126.878 241.872 126.837 241.65C126.739 241.433 126.753 241.194 126.876 240.985C126.999 240.776 127.221 240.613 127.495 240.531C127.776 240.535 128.047 240.613 128.266 240.752C128.484 240.891 128.637 241.083 128.7 241.299C128.763 241.514 128.732 241.74 128.613 241.94C128.494 242.14 128.293 242.303 128.043 242.403Z" fill="#FF7E70"/>
<path d="M128.382 244.277C128.315 244.285 128.247 244.283 128.181 244.269C128.115 244.255 128.053 244.23 127.999 244.196C127.945 244.162 127.899 244.119 127.865 244.07C127.831 244.022 127.809 243.968 127.8 243.912C127.769 243.858 127.753 243.8 127.752 243.741C127.752 243.682 127.768 243.623 127.798 243.57C127.829 243.516 127.874 243.469 127.929 243.432C127.984 243.395 128.049 243.368 128.118 243.355C128.188 243.341 128.26 243.34 128.329 243.353C128.399 243.366 128.464 243.391 128.52 243.428C128.576 243.464 128.622 243.51 128.654 243.563C128.685 243.616 128.702 243.674 128.703 243.734C128.726 243.787 128.735 243.843 128.731 243.899C128.727 243.956 128.71 244.011 128.68 244.061C128.65 244.112 128.608 244.157 128.557 244.194C128.506 244.231 128.447 244.259 128.382 244.277Z" fill="#FF7E70"/>
<path d="M132.303 249.908C132.05 249.908 131.781 249.785 131.702 249.526C131.655 249.419 131.661 249.303 131.72 249.199C131.778 249.096 131.885 249.014 132.018 248.971C132.271 248.971 132.54 249.094 132.619 249.353C132.666 249.46 132.66 249.576 132.601 249.68C132.543 249.783 132.436 249.864 132.303 249.908Z" fill="#FF7E70"/>
<path d="M150.446 232.269C151.089 231.934 151.631 231.443 152.02 230.842C152.2 230.381 152.272 229.888 152.231 229.397C152.19 228.906 152.037 228.43 151.784 228.003C151.264 226.902 150.513 225.92 149.58 225.119C148.866 224.455 147.987 223.984 147.029 223.753C146.552 223.635 146.054 223.619 145.57 223.707C145.087 223.794 144.628 223.983 144.226 224.26C143.833 224.548 143.538 224.946 143.381 225.4C143.223 225.855 143.211 226.345 143.344 226.807C142.76 225.945 141.957 225.246 141.014 224.775C140.07 224.305 139.018 224.08 137.96 224.122C136.66 224.185 135.437 224.735 134.543 225.656C134.102 226.106 133.784 226.656 133.616 227.256C133.448 227.856 133.437 228.487 133.582 229.093C133.761 229.687 134.12 230.214 134.612 230.605C135.103 230.997 135.705 231.235 136.338 231.287C135.552 231.007 134.698 230.962 133.885 231.158C133.073 231.354 132.339 231.782 131.778 232.387C131.216 232.991 130.853 233.746 130.734 234.553C130.615 235.36 130.746 236.184 131.11 236.918C131.486 237.596 132.016 238.181 132.66 238.628C133.305 239.075 134.046 239.372 134.826 239.496C136.429 239.738 138.069 239.525 139.55 238.882C140.976 238.243 142.336 237.472 143.612 236.58L150.446 232.269Z" fill="#FFCF08"/>
<path d="M149.639 232.216C149.93 231.812 150.129 231.353 150.222 230.869C150.316 230.385 150.301 229.888 150.179 229.41C150.058 228.932 149.832 228.485 149.517 228.098C149.202 227.711 148.805 227.393 148.353 227.165C147.901 226.937 147.404 226.805 146.894 226.777C146.385 226.749 145.875 226.826 145.399 227.003C144.923 227.18 144.492 227.453 144.134 227.803C143.775 228.154 143.499 228.574 143.322 229.035C142.844 228.174 142.108 227.471 141.211 227.019C140.314 226.566 139.296 226.384 138.29 226.497C137.857 226.522 137.438 226.652 137.07 226.873C136.702 227.095 136.398 227.402 136.184 227.766C136.03 228.207 136.019 228.684 136.151 229.132C136.284 229.58 136.555 229.978 136.928 230.274C137.687 230.853 138.562 231.275 139.498 231.514C137.765 231.411 136.056 231.944 134.714 233.007C134.382 233.227 134.111 233.522 133.922 233.865C133.733 234.208 133.633 234.59 133.63 234.978C133.689 235.292 133.829 235.587 134.037 235.835C134.246 236.083 134.516 236.276 134.822 236.396C135.437 236.634 136.094 236.756 136.757 236.755C139.213 236.858 141.672 236.637 144.065 236.098C145.412 235.825 146.697 235.319 147.858 234.605C149.02 233.88 149.838 232.742 150.134 231.439L149.639 232.216Z" fill="url(#paint7_linear_22_999)"/>
<path d="M178.259 233.856C178.732 234.473 179.389 234.928 180.139 235.156C180.886 235.371 181.61 235.658 182.299 236.013C182.645 236.186 182.944 236.439 183.169 236.751C183.393 237.062 183.537 237.423 183.589 237.802C183.585 238.166 183.504 238.526 183.351 238.857C183.199 239.189 182.978 239.486 182.703 239.729C181.794 240.603 180.635 241.181 179.382 241.386C178.13 241.591 176.843 241.413 175.696 240.877C174.871 240.417 174.104 239.862 173.412 239.225L171.408 237.45L169.124 235.248C167.548 233.297 165.425 231.845 163.017 231.072C163.301 230.411 163.738 229.824 164.294 229.359C164.85 228.894 165.509 228.564 166.218 228.396C167.639 228.067 169.117 228.067 170.537 228.396C170.908 228.528 171.304 228.577 171.696 228.54C172.089 228.503 172.468 228.381 172.806 228.182C173.288 227.738 173.319 226.989 173.676 226.438C173.903 226.101 174.226 225.838 174.605 225.683C174.984 225.527 175.402 225.487 175.805 225.566C176.206 225.656 176.582 225.829 176.909 226.075C177.236 226.32 177.506 226.632 177.7 226.989C178.073 227.711 178.229 228.522 178.151 229.329C178.151 230.109 177.902 230.858 177.824 231.654C177.708 232.415 177.862 233.193 178.259 233.856Z" fill="#9FCC29"/>
<path d="M163.997 233.245C167.329 232.896 170.472 231.57 173.007 229.445C173.417 229.028 173.905 228.69 174.445 228.448C174.71 228.341 175.002 228.312 175.284 228.367C175.566 228.421 175.824 228.557 176.026 228.755C176.189 229.002 176.276 229.289 176.276 229.583C176.276 229.876 176.189 230.163 176.026 230.41C175.725 230.916 175.283 231.345 174.998 231.866C174.807 232.213 174.691 232.595 174.656 232.987C174.621 233.379 174.669 233.774 174.796 234.148C174.923 234.522 175.127 234.867 175.395 235.162C175.664 235.457 175.991 235.697 176.358 235.866C176.837 236.06 177.335 236.209 177.843 236.31C178.351 236.417 178.823 236.643 179.219 236.969C179.41 237.134 179.549 237.349 179.619 237.588C179.689 237.826 179.687 238.08 179.614 238.318C179.473 238.622 179.242 238.878 178.95 239.053C177.423 240.162 175.523 240.676 173.624 240.495C171.726 240.313 169.966 239.449 168.691 238.073C167.917 237.23 167.348 236.234 166.652 235.329C166.02 234.377 165.09 233.646 163.997 233.245Z" fill="#73A624"/>
<path d="M98.4237 292.998C101.798 294.253 105.56 294.311 108.979 293.161C110.673 292.582 112.218 291.688 113.52 290.537C114.821 289.385 115.851 288 116.544 286.467C117.329 284.43 117.791 282.301 117.918 280.144L118.936 270.006C116.349 270.429 113.684 270.161 111.258 269.234C109.844 268.454 108.271 267.949 106.635 267.749C105.82 267.666 104.997 267.805 104.267 268.148C103.537 268.491 102.933 269.023 102.529 269.679C102.109 270.525 102.174 271.534 101.737 272.366C101.064 273.425 99.9686 274.202 98.6823 274.533C97.4083 274.85 96.1971 275.351 95.0938 276.017C94.5499 276.364 94.1509 276.87 93.9628 277.453C93.7747 278.036 93.8088 278.661 94.0593 279.223C94.5766 280.099 95.8051 280.5 96.2092 281.42C96.3357 281.837 96.3473 282.277 96.2429 282.699C96.1385 283.122 95.9214 283.514 95.6111 283.84C94.9791 284.488 94.4061 285.183 93.8977 285.918C93.5387 286.636 93.4002 287.43 93.4971 288.215C93.5939 288.999 93.9225 289.745 94.4472 290.371C95.4731 291.577 96.8527 292.488 98.4237 292.998Z" fill="#B55728"/>
<g style="mix-blend-mode:multiply" opacity="0.32">
<path d="M113.388 273.309C110.426 275.337 110.114 277.635 109.022 280.609C108.591 281.515 107.92 282.295 107.077 282.872C106.234 283.449 105.249 283.803 104.22 283.899C103.14 284.062 102.035 283.945 101.018 283.559C100.002 283.174 99.1099 282.534 98.4353 281.706C96.611 279.408 96.2836 276.719 93.9136 277.335C93.8131 277.606 93.7723 277.894 93.7938 278.181C93.8152 278.468 93.8985 278.748 94.0383 279.002C94.5373 279.888 95.7223 280.294 96.1121 281.225C96.2341 281.647 96.2453 282.092 96.1446 282.52C96.0439 282.947 95.8345 283.344 95.5352 283.674C94.9256 284.33 94.3728 285.033 93.8824 285.776C93.5362 286.503 93.4026 287.306 93.496 288.101C93.5894 288.895 93.9064 289.649 94.4125 290.283C95.4125 291.529 96.7667 292.468 98.3106 292.986C101.566 294.256 105.195 294.315 108.492 293.152C110.126 292.565 111.617 291.661 112.872 290.495C114.127 289.33 115.12 287.928 115.789 286.377C116.564 284.294 117.021 282.113 117.146 279.903C117.411 277.095 117.692 274.286 117.957 271.477C116.335 271.829 114.79 272.449 113.388 273.309Z" fill="#B55728"/>
</g>
<path d="M111.579 272.504C111.036 272.083 110.387 271.769 109.68 271.584C108.969 271.405 108.204 271.451 107.532 271.714C107.19 271.848 106.893 272.048 106.665 272.299C106.438 272.549 106.286 272.842 106.224 273.151C106.169 273.465 106.215 273.784 106.357 274.078C106.5 274.371 106.733 274.628 107.033 274.822C107.339 275.007 107.69 275.133 108.062 275.191C108.433 275.249 108.816 275.238 109.181 275.159C109.912 274.982 110.583 274.668 111.143 274.239C111.703 273.838 112.248 273.242 112.03 272.659C111.812 272.076 112.108 272.387 111.579 272.504Z" fill="#8D3800"/>
<path d="M108.351 278.651C107.955 278.304 107.465 278.094 106.948 278.05C106.432 278.006 105.915 278.13 105.47 278.406C105.035 278.698 104.69 279.115 104.478 279.606C104.266 280.098 104.195 280.643 104.274 281.176C104.368 281.721 104.606 282.229 104.959 282.643C105.313 283.058 105.77 283.362 106.279 283.524C106.772 283.682 107.294 283.71 107.8 283.606C108.306 283.502 108.779 283.269 109.177 282.929C109.45 282.701 109.675 282.417 109.838 282.094C110 281.771 110.096 281.416 110.12 281.053C110.105 280.674 110.015 280.303 109.855 279.962C109.696 279.621 109.471 279.318 109.193 279.072C108.654 278.494 108.958 279.16 108.351 278.651Z" fill="#8D3800"/>
<path d="M102.221 285.044C101.545 284.826 100.841 284.684 100.127 284.619C99.4039 284.554 98.6796 284.728 98.0896 285.108C97.8015 285.304 97.5868 285.574 97.474 285.882C97.3613 286.19 97.3558 286.521 97.4583 286.832C97.701 287.332 98.155 287.726 98.7208 287.926C99.4922 288.3 100.38 288.436 101.246 288.312C101.675 288.245 102.078 288.079 102.415 287.831C102.751 287.583 103.011 287.261 103.168 286.897C103.306 286.525 103.293 286.122 103.13 285.759C102.967 285.396 102.665 285.097 102.278 284.915C101.934 284.799 102.565 285.044 102.221 285.044Z" fill="#8D3800"/>
<g style="mix-blend-mode:multiply" opacity="0.55">
<path d="M185.39 244.577H185.31L185.152 244.443L184.978 244.323C184.932 244.276 184.879 244.236 184.819 244.204L184.202 243.728L184.059 243.623L183.568 243.266L183.425 243.162C182.617 242.566 181.556 241.806 180.257 240.942C180.631 240.814 180.991 240.654 181.334 240.466C180.316 240.292 179.346 239.922 178.488 239.378C177.629 238.835 176.899 238.13 176.344 237.308C174.253 234.716 172.337 230.769 168.218 230.739C166.423 230.789 164.664 230.264 163.228 229.25C159.648 226.479 154.991 227.313 150.286 228.594C147.598 229.332 145.257 230.908 143.649 233.063C142.588 234.552 141.209 235.804 140.243 236.98C138.532 239.066 136.441 241.717 133.384 241.94C131.261 242.104 128.822 241.255 128.632 238.961C128.616 238.823 128.616 238.683 128.632 238.544C125.464 242.089 122.676 246.081 120.426 248.732C120.297 248.883 120.159 249.027 120.014 249.164C120.014 249.343 120.014 249.537 120.014 249.73C120.225 251.517 119.937 253.325 119.179 254.976C118.42 256.627 117.218 258.063 115.69 259.144C116.64 262.331 117.195 266.011 114.423 267.619C113.759 267.996 113.03 268.258 112.268 268.394C112.347 272.535 113.25 275.007 111.08 279.58C108.546 284.853 110.621 287.474 105.393 291.287C103.845 292.365 102.137 293.223 100.324 293.834H100.673H100.926C101.56 293.909 102.209 293.953 102.922 293.983C103.635 293.983 104.379 293.983 105.171 293.983H105.71C106.518 293.983 107.294 293.864 108.26 293.76C129.234 291.272 164.606 244.815 185.548 244.606L185.39 244.577Z" fill="#BD9749"/>
</g>
<path d="M117.195 265.487C118.771 255.141 124.096 245.656 132.237 238.693C136.325 235.279 141.166 232.796 146.398 231.429C151.63 230.062 157.117 229.847 162.448 230.8C170.466 232.448 177.458 236.954 184.23 241.384C188.965 244.529 190.18 246.178 194.994 249.323C195.831 249.867 201.118 250.699 201.213 251.651C201.387 253.163 198.751 255.401 197.172 255.84C179.618 260.647 162.836 267.739 147.295 276.918C139.703 281.455 132.411 286.384 124.329 290.028C116.248 293.672 107.157 295.91 98.3649 294.489C100.594 294.823 102.876 294.59 104.982 293.812C107.088 293.035 108.942 291.74 110.361 290.058C113.296 286.807 116.485 269.736 117.195 265.487Z" fill="#FAD15F"/>
<path d="M172.581 238.711C163.466 234.252 151.382 230.268 141.576 235.545C134.205 239.514 129.459 245.401 125.248 252.225C121.036 259.048 120.958 267.581 118.648 275.208C117.233 279.89 115.819 286.892 111.937 290.505C110.317 292.047 108.359 293.234 106.202 293.983C112.605 293.542 118.858 291.937 124.619 289.256C132.665 285.673 139.925 280.767 147.484 276.367C162.971 267.339 179.696 260.366 197.19 255.644C198.762 255.213 201.386 253.057 201.213 251.526C201.22 251.497 201.22 251.466 201.213 251.437C190.731 251.154 181.711 243.186 172.581 238.711Z" fill="#F9C22D"/>
<path d="M172.581 238.711C163.466 234.252 151.382 230.268 141.576 235.545C134.205 239.514 129.459 245.401 125.248 252.225C121.036 259.048 120.958 267.581 118.648 275.208C117.233 279.89 115.819 286.892 111.937 290.505C110.317 292.047 108.359 293.234 106.202 293.983C112.605 293.542 118.858 291.937 124.619 289.256C132.665 285.673 139.925 280.767 147.484 276.367C162.971 267.339 179.696 260.366 197.19 255.644C198.762 255.213 201.386 253.057 201.213 251.526C201.22 251.497 201.22 251.466 201.213 251.437C190.731 251.154 181.711 243.186 172.581 238.711Z" fill="#F9C22D"/>
<g style="mix-blend-mode:multiply" opacity="0.55">
<path d="M185.247 247.099C178.278 246.99 171.529 249.392 166.389 253.811C160.103 258.753 154.163 263.873 145.96 265.614C135.887 267.738 128.674 261.881 124.211 254.475C120.973 260.966 120.738 268.476 118.648 275.35C117.233 279.998 115.819 286.946 111.937 290.531C110.317 292.062 108.359 293.24 106.202 293.983C112.605 293.545 118.858 291.953 124.619 289.292C132.665 285.737 139.925 280.868 147.484 276.501C162.971 267.541 179.696 260.622 197.19 255.936C198.762 255.508 201.386 253.369 201.213 251.849C201.22 251.82 201.22 251.79 201.213 251.761C195.522 251.693 189.975 250.074 185.247 247.099Z" fill="#F2CC49"/>
</g>
<g style="mix-blend-mode:multiply" opacity="0.55">
<path d="M161.216 263.038C150.797 265.395 144.403 269.547 136.761 276.62C132.955 280.103 128.962 283.845 124.814 287.419L125.437 287.16C133.329 283.495 140.551 278.476 148.052 273.913C156.9 268.642 166.162 264.065 175.752 260.224C170.636 260.832 165.536 262.049 161.216 263.038Z" fill="#D68902"/>
</g>
<path d="M155.896 237.15C154.713 236.743 153.404 236.669 152.166 236.94C150.928 237.21 149.83 237.809 149.036 238.648C148.692 238.986 148.46 239.393 148.362 239.83C148.305 240.045 148.312 240.269 148.38 240.481C148.449 240.694 148.578 240.89 148.757 241.053C149.127 241.288 149.57 241.43 150.033 241.462C150.497 241.493 150.961 241.413 151.372 241.231C152.703 240.809 153.889 240.12 154.827 239.225C155.334 238.809 155.638 238.251 155.682 237.658C155.666 237.067 156.603 237.04 155.896 237.15Z" fill="#E9A000"/>
<path d="M144.06 246.546C143.385 246.183 142.607 246.07 141.858 246.225C141.11 246.381 140.439 246.796 139.958 247.4C139.707 247.669 139.551 248.017 139.515 248.386C139.48 248.756 139.566 249.127 139.761 249.442C140.021 249.66 140.33 249.808 140.661 249.872C140.992 249.936 141.334 249.915 141.655 249.81C142.378 249.718 143.068 249.448 143.665 249.023C143.961 248.803 144.184 248.495 144.305 248.143C144.426 247.79 144.438 247.408 144.34 247.048C144.093 246.362 144.587 246.027 144.06 246.546Z" fill="#E9A000"/>
<path d="M160.906 251.49C160.034 250.657 158.899 250.119 157.675 249.958C156.451 249.798 155.206 250.025 154.13 250.603C153.054 251.181 152.208 252.079 151.72 253.159C151.233 254.24 151.131 255.442 151.432 256.582C151.5 256.922 151.645 257.244 151.858 257.525C152.071 257.806 152.346 258.04 152.663 258.209C153.026 258.324 153.41 258.368 153.792 258.34C154.173 258.312 154.545 258.212 154.886 258.047C156.768 257.309 158.418 256.121 159.674 254.597C160.187 254.028 161.504 252.043 160.906 251.49Z" fill="#E9A000"/>
<path d="M175.25 240.841C174.394 241.256 173.538 242.177 173.864 243.116C174.189 244.055 175.267 244.343 176.191 244.271C176.74 244.258 177.28 244.11 177.765 243.838C178.011 243.707 178.224 243.516 178.384 243.28C178.545 243.045 178.65 242.771 178.689 242.484C178.705 242.083 178.595 241.688 178.375 241.362C178.155 241.035 177.838 240.794 177.474 240.678C176.74 240.436 175.945 240.494 175.25 240.841Z" fill="#E9A000"/>
<path d="M185.794 249.634C185.112 249.365 184.391 249.16 183.646 249.024C182.891 248.895 182.101 249.002 181.447 249.322C181.126 249.483 180.882 249.722 180.753 250.001C180.624 250.279 180.616 250.584 180.731 250.866C180.873 251.116 181.098 251.332 181.383 251.491C181.669 251.651 182.004 251.748 182.354 251.774C183.055 251.81 183.758 251.75 184.432 251.598C184.931 251.536 185.411 251.403 185.846 251.205C186.06 251.1 186.235 250.953 186.355 250.78C186.474 250.607 186.533 250.412 186.527 250.216C186.479 250.035 186.372 249.867 186.216 249.727C186.06 249.587 185.861 249.48 185.637 249.417C185.2 249.268 186.213 249.796 185.794 249.634Z" fill="#E9A000"/>
<path d="M173.459 256.181C172.373 255.701 171.172 255.482 169.969 255.546C169.368 255.587 168.789 255.773 168.289 256.084C167.79 256.395 167.388 256.82 167.123 257.318C166.887 257.825 166.874 258.396 167.087 258.911C167.3 259.426 167.722 259.845 168.265 260.08C168.941 260.272 169.664 260.272 170.339 260.08C171.197 259.922 172.005 259.589 172.703 259.105C173.046 258.858 173.31 258.529 173.466 258.154C173.621 257.78 173.664 257.373 173.588 256.978C173.363 256.166 174.247 255.826 173.459 256.181Z" fill="#E9A000"/>
<path d="M147.295 263.175C146.364 263.368 145.514 263.793 144.846 264.401C144.69 264.557 144.57 264.74 144.496 264.939C144.421 265.137 144.392 265.346 144.411 265.555C144.43 265.763 144.497 265.966 144.607 266.151C144.716 266.336 144.867 266.499 145.05 266.631C145.366 266.761 145.716 266.812 146.062 266.778C146.408 266.743 146.737 266.625 147.012 266.436C147.607 266.125 148.05 265.628 148.252 265.042C148.346 264.746 148.347 264.433 148.256 264.136C148.165 263.839 147.985 263.569 147.734 263.356C147.216 262.952 147.939 262.98 147.295 263.175Z" fill="#E9A000"/>
<path d="M129.58 269.673C128.61 269.896 127.736 270.378 127.068 271.059C126.4 271.74 125.969 272.588 125.83 273.494C125.73 274.099 125.835 274.718 126.133 275.266C126.291 275.537 126.526 275.763 126.814 275.922C127.101 276.08 127.43 276.165 127.765 276.166C128.718 276.166 129.383 275.321 129.882 274.574C130.381 273.826 130.744 273.189 131.152 272.539C131.401 272.228 131.567 271.868 131.636 271.488C131.704 271.108 131.673 270.718 131.545 270.351C131.356 270.088 131.09 269.879 130.777 269.749C130.463 269.62 130.116 269.574 129.776 269.618C129.156 269.673 130.245 269.521 129.58 269.673Z" fill="#E9A000"/>
<g style="mix-blend-mode:screen" opacity="0.32">
<path d="M170.43 239.659C168.435 237.264 165.573 235.663 162.404 235.171C159.264 234.704 156.057 234.851 152.98 235.605C145.619 237.26 138.913 240.895 133.66 246.077C131.989 247.449 130.928 249.374 130.691 251.463C130.786 252.66 131.252 253.803 132.029 254.748C132.806 255.694 133.86 256.398 135.058 256.773C137.465 257.476 140.018 257.6 142.487 257.132C148.416 256.223 154.214 254.662 159.765 252.48C162.091 251.733 164.308 250.708 166.362 249.428C168.35 248.108 169.825 246.198 170.556 243.997C170.909 242.898 170.949 241.729 170.673 240.609C170.397 239.49 169.815 238.46 168.985 237.625L170.43 239.659Z" fill="#FAD15F"/>
</g>
<path d="M68.9773 111.133L80.5517 130.796L129.712 110.061L98.7515 97.0368C98.7515 97.0368 76.5671 106.102 68.9773 111.133Z" fill="#EFEFEC"/>
<path d="M141.465 89.809L126.773 111.103L198.283 106.105L187.619 85.7836L141.465 89.809Z" fill="#EFEFEC"/>
<path d="M162.222 124.118L198.283 106.414L126.13 109.56L80.7324 130.796L162.222 124.118Z" fill="#E2B58B"/>
<path d="M87.5894 62L127.649 116.73L131.671 114.277L94.5088 56.7129C94.5088 56.7129 87.6211 57.0634 87.5894 62Z" fill="#716361"/>
<path d="M102.283 63.1792L138.176 119.543L142.446 117.435L109.731 58.5894C109.731 58.5894 102.733 58.41 102.283 63.1792Z" fill="#716361"/>
<path d="M107.393 195.808L159.068 196.44L184.003 180.834L198.283 106.414L126.13 109.605L80.7324 131.141L107.393 195.808Z" fill="#EFEFEC"/>
<g style="mix-blend-mode:multiply">
<path d="M162.497 108.29L126.38 109.865L80.7324 131.336L107.54 195.81L159.499 196.44L174.773 186.957L162.497 108.29Z" fill="#EAE6DC"/>
</g>
<path d="M159.099 196.44L184.014 180.834L198.283 106.414L162.439 114.391L159.099 196.44Z" fill="#EFEFEC"/>
<path d="M140.277 166.431C135.927 167.789 131.395 168.575 126.812 168.767C122.555 169.213 118.251 169.072 114.038 168.347L114.729 179.56L142.446 178.407L140.406 166.821L140.277 166.431ZM122.49 177.09L117.284 177.33L116.866 171.821C116.866 170.833 121.863 170.503 121.96 171.506L122.49 177.09ZM130.331 176.746L124.868 176.985L124.209 171.371C124.097 170.353 129.415 170.009 129.544 171.042L130.331 176.746ZM138.574 176.386L132.822 176.641L132.034 170.922C131.89 169.889 137.449 169.53 137.626 170.578L138.574 176.386Z" fill="#716361"/>
<path d="M119.916 172.076L120.281 176.747L121.875 176.663L121.524 172.467C121.497 172.145 120.686 172.006 119.916 172.076Z" fill="#716361"/>
<path d="M119.15 172.085H118.815H118.528H118.304H118.225H118.065H117.969C117.952 172.13 117.952 172.179 117.969 172.223L117.985 176.747L119.916 176.664L119.581 172.058L119.15 172.085Z" fill="#716361"/>
<path d="M126.773 171.141L127.454 176.747L129.712 176.648L129.066 171.717C128.995 171.207 127.866 171.059 126.773 171.141Z" fill="#716361"/>
<path d="M126.882 171.153H126.578H126.316H126.108H125.97H125.887L125.804 171.236C125.79 171.289 125.79 171.347 125.804 171.401L126.219 176.351L127.753 176.747L127.255 171.12L126.882 171.153Z" fill="#716361"/>
<path d="M134.609 171.137L135.405 175.809L137.548 175.729L136.801 171.592C136.801 171.204 135.632 171.07 134.609 171.137Z" fill="#716361"/>
<path d="M134.226 171.147H133.795H133.436H133.167H133.077H132.88H132.772H132.665C132.646 171.191 132.646 171.238 132.665 171.282L133.382 175.324L135.589 175.809L134.71 171.12L134.226 171.147Z" fill="#716361"/>
<path d="M107.906 165.78C110.802 167.094 113.905 167.879 117.071 168.098H117.149C120.282 168.376 123.433 168.376 126.565 168.098C129.852 167.847 133.112 167.316 136.311 166.511C139.964 165.68 143.451 164.225 146.621 162.209C148.081 161.177 147.029 160.621 146.103 160.859C140.611 162.447 138.257 162.717 135.118 162.447L117.448 164.034C114.406 164.865 111.217 164.979 108.126 164.368C107.294 164.415 106.604 165.098 107.906 165.78Z" fill="#716361"/>
<path d="M116.977 157.239L117.431 163.618L135.589 161.852L134.616 155.178C131.712 156.162 128.702 156.798 125.651 157.076C122.774 157.45 119.865 157.504 116.977 157.239ZM126.932 158.106C126.932 157.452 130.271 157.059 130.352 157.73L130.904 161.41L127.434 161.753L126.932 158.106ZM120.787 158.793C120.787 158.139 124.029 157.762 124.029 158.433L124.419 162.048L121.176 162.375L120.787 158.793Z" fill="#716361"/>
<path d="M112.605 155.755C114.693 156.54 116.9 156.967 119.131 157.017C121.277 157.109 123.427 157.029 125.56 156.777C127.788 156.522 129.992 156.089 132.15 155.483C134.581 154.853 136.898 153.845 139.013 152.497C139.993 151.794 139.318 151.443 138.691 151.651C128.228 155.036 124.949 151.427 124.949 151.427C124.949 151.427 122.635 155.723 112.702 154.972C112.155 154.877 111.673 155.34 112.605 155.755Z" fill="#716361"/>
<path d="M122.854 158.951L123.037 161.742L123.834 161.638L123.652 159.175C123.652 158.951 123.242 158.891 122.854 158.951Z" fill="#716361"/>
<path d="M128.732 158.015L128.964 160.805L129.712 160.687L129.5 158.235C129.479 158 129.065 157.956 128.732 158.015Z" fill="#716361"/>
<path d="M128.159 158.434H128.023H127.909H127.815H127.752L127.95 160.805L128.732 160.705L128.492 157.991H128.346L128.159 158.434Z" fill="#716361"/>
<g style="mix-blend-mode:multiply" opacity="0.55">
<g style="mix-blend-mode:multiply" opacity="0.55">
<path d="M97.5876 159.182L150.357 156.506C150.357 156.506 161.36 127.78 162.571 124.277C164.536 118.821 163.687 115.258 166.532 110.162L107.318 118.565L80.941 131.042L81.3025 131.944C85.531 135.777 97.5876 159.182 97.5876 159.182Z" fill="#D6C2A6"/>
</g>
</g>
<path d="M173.602 113.916C174.295 110.442 171.374 107.269 170.967 103.735C170.823 102.347 171.067 100.947 171.674 99.6912C172.28 98.435 173.224 97.3718 174.4 96.6207C174.896 96.2805 175.473 96.0781 176.072 96.0341C176.37 96.0183 176.667 96.0825 176.932 96.22C177.196 96.3576 177.419 96.5634 177.578 96.8162C178.105 97.7787 177.246 98.9067 176.463 99.6737C176.776 99.7898 177.109 99.8393 177.442 99.8191C177.775 99.799 178.1 99.7096 178.397 99.5567C178.693 99.4037 178.954 99.1907 179.163 98.9311C179.372 98.6716 179.524 98.3713 179.611 98.0494C179.742 97.3856 179.655 96.6969 179.362 96.0868C179.069 95.4766 178.585 94.9779 177.984 94.6655C177.375 94.3745 176.709 94.2234 176.034 94.2234C175.359 94.2234 174.693 94.3745 174.084 94.6655C172.851 95.2364 171.78 96.1048 170.967 97.1922C169.881 98.4451 169.055 99.9016 168.537 101.477C168.02 103.052 167.823 104.714 167.956 106.366C168.125 108.017 168.74 109.591 169.734 110.921C170.729 112.251 172.065 113.286 173.602 113.916Z" fill="#FBDF6A"/>
<path d="M114.817 125.17C115.363 121.379 114.789 117.523 113.155 114.012C112.308 112.265 110.987 110.752 109.322 109.621C107.657 108.49 105.704 107.779 103.654 107.559C102.863 107.449 102.055 107.526 101.305 107.783C100.555 108.04 99.8867 108.468 99.3625 109.029C98.9431 109.692 98.7986 110.474 98.956 111.229C99.1134 111.984 99.562 112.66 100.218 113.13C100.898 113.571 101.708 113.807 102.537 113.807C103.367 113.807 104.177 113.571 104.857 113.13C105.52 112.668 106.05 112.062 106.401 111.364C106.752 110.667 106.912 109.9 106.868 109.132C106.748 107.586 106.008 106.138 104.794 105.074C104.313 104.589 103.724 104.205 103.068 103.952C102.412 103.698 101.704 103.579 100.993 103.604C100.287 103.655 99.6271 103.949 99.1411 104.427C98.6552 104.905 98.3785 105.534 98.3649 106.192C99.1292 105.689 100.047 105.426 100.983 105.443C101.92 105.459 102.826 105.753 103.57 106.282C104.313 106.811 104.855 107.548 105.115 108.383C105.375 109.219 105.34 110.109 105.016 110.925C104.762 111.613 104.243 112.189 103.559 112.542C103.211 112.705 102.819 112.768 102.433 112.723C102.047 112.679 101.684 112.529 101.389 112.292C101.071 111.963 100.895 111.536 100.895 111.094C100.895 110.652 101.071 110.225 101.389 109.896C101.723 109.578 102.136 109.341 102.591 109.205C103.047 109.069 103.531 109.039 104.002 109.117C104.942 109.28 105.827 109.648 106.583 110.19C108.832 111.717 110.539 113.833 111.487 116.265C112.435 118.698 112.58 121.337 111.904 123.847L114.817 125.17Z" fill="#FBDF6A"/>
<g style="mix-blend-mode:multiply">
<path d="M157.14 164.465C155.568 165.423 153.901 166.305 152.344 167.038C142.675 171.525 132.281 170.987 122.47 167.038C112.742 163.071 104.476 156.437 98.7279 147.983C95.8221 143.458 93.4592 138.636 91.6838 133.61L85.6304 136.451L108.932 192.509L155.693 192.689C156.26 188.935 157.14 164.465 157.14 164.465Z" fill="#F1EAE2"/>
</g>
<path d="M194.648 109.147C193.13 107.273 191.41 105.547 189.515 103.997C187.609 102.43 185.215 101.466 182.681 101.246C180.677 101.205 178.72 101.812 177.144 102.962C175.568 104.112 174.469 105.734 174.036 107.552C173.751 105.296 172.545 103.227 170.666 101.773C168.788 100.311 166.713 99.0812 164.494 98.115C162.379 97.8407 160.225 97.9691 158.165 98.4922C156.105 99.0154 154.181 99.9225 152.51 101.158C150.957 102.178 149.841 103.676 149.361 105.387C149.148 107.461 149.528 109.551 150.463 111.444C151.574 114.773 153.163 117.948 155.187 120.881C156.137 122.148 157.283 123.277 158.589 124.232L178.398 121.554C183.799 118.453 189.137 115.219 194.349 111.854C194.81 111.623 195.163 111.243 195.341 110.786C195.357 110.483 195.303 110.18 195.184 109.897C195.064 109.615 194.882 109.359 194.648 109.147Z" fill="#FBDF6A"/>
<path d="M191.815 110.114L188.201 107.439C186.724 106.205 185.024 105.26 183.192 104.655C182.291 104.355 181.32 104.329 180.405 104.582C179.489 104.834 178.671 105.353 178.055 106.071C177.534 106.986 177.134 107.964 176.866 108.981C176.774 109.584 176.485 110.141 176.043 110.565C175.601 110.989 175.032 111.257 174.421 111.329C173.811 111.4 173.194 111.271 172.665 110.96C172.135 110.65 171.724 110.176 171.493 109.611C170.7 108.494 170.272 107.156 169.527 105.992C168.705 104.778 167.616 103.764 166.342 103.028C165.067 102.292 163.641 101.853 162.171 101.744C159.305 101.591 156.469 102.382 154.102 103.994C151.789 105.569 149.74 107.497 148.031 109.705C147.46 110.397 146.969 111.546 147.746 112.128C148.522 112.71 149.236 112.128 149.807 111.687C151.55 110.287 153.151 108.714 154.99 107.424C156.826 106.044 159.032 105.233 161.331 105.095C162.506 105.043 163.676 105.278 164.737 105.78C165.799 106.282 166.72 107.036 167.418 107.974C168.148 109.06 168.481 110.35 169.194 111.42C170.015 112.628 171.274 113.476 172.709 113.786C174.144 114.097 175.644 113.847 176.898 113.087C177.932 112.21 178.848 111.206 179.625 110.098C180.011 109.555 180.509 109.099 181.085 108.76C181.662 108.421 182.304 108.207 182.97 108.132C183.734 108.226 184.47 108.478 185.13 108.87C185.791 109.263 186.362 109.789 186.806 110.413C187.677 111.674 188.799 112.745 190.103 113.559C190.733 113.9 191.472 113.984 192.164 113.795C192.507 113.691 192.808 113.484 193.027 113.202C193.246 112.92 193.371 112.578 193.385 112.222C193.369 111.278 192.56 110.649 191.815 110.114Z" fill="#E5B348"/>
<path d="M133.63 102.852C133.63 102.852 140.203 92.7517 149.775 95.7009C159.347 98.6501 159.098 107.926 159.098 107.926C159.098 107.926 153.955 121.434 144.694 121.419C135.432 121.403 135.137 106.321 133.63 102.852Z" fill="#BE7139"/>
<g style="mix-blend-mode:multiply" opacity="0.55">
<path d="M155.618 99.1285C155.217 100.766 154.335 102.249 153.085 103.389C150.583 105.612 146.87 107.572 143.591 105.55C140.794 103.79 139.644 100.579 136.893 98.9124C135.661 100.019 134.565 101.268 133.63 102.633C135.184 106.137 135.184 121.419 144.678 121.419C154.173 121.419 159.099 107.757 159.099 107.757C158.916 104.581 157.694 101.551 155.618 99.1285Z" fill="#C47F4C"/>
</g>
<path d="M139.861 127.532L164.053 124.393L168.895 123.403C167.251 123.146 165.628 122.774 164.038 122.291C160.477 120.463 159.071 117.111 160.649 113.896C161.695 111.748 165.412 106.461 161.289 104.754C160.612 104.504 159.888 104.395 159.165 104.435C157.579 104.47 156.025 104.868 154.625 105.596C153.226 106.323 152.02 107.36 151.106 108.624C149.357 111.077 148.232 114.018 145.109 115.16C139.252 117.37 141.048 109.752 139.642 106.705C138.992 105.492 138.055 104.447 136.909 103.657C135.176 102.246 133.088 101.312 130.861 100.953C128.634 100.594 126.349 100.823 124.243 101.616C121.745 102.776 119.716 104.717 118.48 107.131C117.3 109.398 116.428 111.805 115.887 114.292C115.465 116.105 114.856 118.573 112.904 119.396C110.952 120.219 108.578 117.644 107.203 116.349C104.579 114.018 99.8003 113.302 96.5673 113.606C90.6168 114.246 86.0095 120.204 88.1023 125.795C89.5147 129.03 92.0309 131.69 95.2242 133.322L95.3179 133.23C95.7396 133.413 95.4741 133.459 95.8801 133.382C97.52 134.738 100.144 134.601 102.221 134.464C106.641 134.19 110.842 133.824 115.278 133.428C122.509 132.788 129.631 131.615 136.753 131.051L140.642 130.777L139.861 127.532Z" fill="#FBDF6A"/>
<path d="M145.187 121.597C147.005 120.817 151.321 114.459 153.376 116.829C154.957 118.742 153.756 122.804 154.262 124.982L154.356 125.276L159.099 124.629C157.688 123.759 156.674 122.432 156.254 120.905C155.899 119.566 155.942 118.162 156.38 116.843C156.644 116.245 156.769 115.601 156.748 114.954C156.726 114.308 156.557 113.672 156.254 113.091C155.574 112.708 154.404 112.296 153.787 112.84C153.708 112.84 152.538 113.679 151.337 114.312C150.352 114.896 149.416 115.551 148.539 116.269C146.587 117.803 144.229 118.82 141.71 119.213C138.864 119.522 137.931 117.888 137.362 115.696C136.888 113.929 136.793 111.118 135.291 109.632C134.829 109.189 134.273 108.84 133.657 108.61C133.042 108.379 132.381 108.271 131.718 108.293C129.048 108.265 126.447 109.091 124.352 110.633C121.836 112.431 119.9 114.84 118.755 117.594C118.17 119.066 117.696 120.537 117.064 122.009C115.847 124.761 113.57 126.086 110.408 123.922C108.132 122.348 106.646 120.376 103.943 119.257C100.607 117.859 97.3978 117.55 94.4574 119.125C88.4501 122.289 92.6078 128.735 98.125 131.104C99.0577 131.502 99.121 132.297 99.8798 131.104C100.639 129.912 97.3504 128.338 96.7181 127.513C93.9357 124.261 98.5044 121.803 101.856 122.348C105.207 122.892 107.247 125.939 110.551 126.807C111.949 127.113 113.411 127.058 114.779 126.648C116.146 126.238 117.368 125.489 118.313 124.482C120.7 122.068 122.296 118.86 124.257 116.152C125.521 114.415 128.699 111.737 131.371 113.709C133.71 115.386 133.821 118.919 135.971 120.905C138.595 123.29 142.358 122.833 145.187 121.597Z" fill="#E5B348"/>
<path d="M125.815 129.294C125.815 129.294 124.692 112.585 138.788 115.115C152.452 117.541 153.222 126.644 153.222 126.644C153.222 126.644 130.77 133.831 125.815 129.294Z" fill="#BE7139"/>
<path d="M188.487 114.284C188.487 114.284 177.474 103.388 167.61 113.585C161.836 119.558 167.358 126.108 167.358 126.108L188.487 114.284Z" fill="#BE7139"/>
<g style="mix-blend-mode:multiply" opacity="0.55">
<path d="M194.663 109.304L193.75 108.216C191.072 106.463 188.788 104.498 185.024 106.025C182.173 108.201 180.299 112.16 177.149 114.019C173.999 115.878 169.511 115.228 166.313 116.603C165.326 117.896 164.123 119.024 162.754 119.943C162.08 120.913 161.197 121.733 160.164 122.348C159.132 122.964 157.974 123.359 156.769 123.509C155.3 123.762 153.791 123.697 152.352 123.318C150.913 122.938 149.581 122.255 148.453 121.318C148.327 121.318 143.366 119.988 143.256 119.988C135.995 120.623 140.625 124.809 126.435 123.917C124.739 124.968 122.781 125.563 120.765 125.64C117.064 127.438 111.992 127.65 107.677 128.088C104.889 128.36 100.022 129.206 96.9668 127.816C95.9586 127.368 94.8448 127.183 93.7383 127.282C92.6319 127.38 91.5723 127.757 90.6668 128.375L89.5486 129.146C90.9991 130.823 92.7482 132.24 94.7145 133.332L94.809 133.241C95.2343 133.422 94.9665 133.468 95.376 133.392C97.0298 134.737 99.6757 134.601 101.77 134.465C106.228 134.193 110.464 133.83 114.937 133.437C122.23 132.803 129.411 131.639 136.593 131.08L140.515 130.808L140.405 130.355C144.561 129.502 148.662 128.422 152.69 127.121C152.647 126.711 152.562 126.306 152.438 125.912L164.077 124.401L165.652 124.083C165.979 124.827 166.385 125.536 166.865 126.199L172.818 122.904L178.394 122.119C182.803 119.504 187.15 116.769 191.45 113.973C191.648 113.962 191.844 113.926 192.033 113.868C192.279 113.789 192.505 113.661 192.695 113.492C192.886 113.322 193.036 113.115 193.135 112.885L194.348 112.1C194.809 111.862 195.162 111.469 195.34 110.996C195.358 110.685 195.307 110.373 195.19 110.081C195.073 109.789 194.894 109.525 194.663 109.304Z" fill="#C47F4C"/>
</g>
<path d="M80.7324 130.276L98.4517 152.365L146.703 148.574L163.018 124.232L80.7324 130.276Z" fill="#EFEFEC"/>
<g style="mix-blend-mode:multiply">
<path d="M110.618 129.859L83.6712 131.879L99.9794 151.427L141.467 148.104C131.067 142.237 120.858 136.025 110.618 129.859Z" fill="#F2EBE5"/>
</g>
<g style="mix-blend-mode:multiply">
<path d="M175.584 165.1L177.912 125.17L174.084 125.714L173.443 165.448L159.224 193.158L159.099 196.44L160.755 195.396L174.443 173.026L183.318 181.133L183.928 180.755L184.568 177.382L175.584 165.1Z" fill="#EBE5DF"/>
</g>
<g style="mix-blend-mode:multiply" opacity="0.55">
<path d="M192.809 135.493L198.283 106.414L163.017 124.314C163.017 124.314 171.604 144.735 175.606 149.552C178.979 147.796 192.809 135.493 192.809 135.493Z" fill="#DBC9B0"/>
</g>
<path d="M177.092 142.049L203.18 124.36L199.155 106.414L163.017 124.405L177.092 142.049Z" fill="#EFEFEC"/>
<g style="mix-blend-mode:multiply">
<path d="M165.956 126.047L177.051 139.236L201.221 123.612L200.508 120.481C189.667 121.93 176.766 124.583 165.956 126.047Z" fill="#F2EBE5"/>
</g>
<ellipse cx="110.61" cy="208.162" rx="3.42855" ry="3.28217" fill="#73A624"/>
<path d="M184.449 213.383C183.431 215.096 180.517 214.587 178.929 213.673C177.341 212.76 175.21 210.585 177.021 207.7C178.832 204.814 181.941 206.692 183.53 207.606C185.118 208.519 185.467 211.67 184.449 213.383Z" fill="#73A624"/>
<path d="M214.71 141.804C216.479 143.288 214.54 146.954 212.66 148.883C210.779 150.813 207.029 153.3 204.092 150.677C201.155 148.054 204.951 144.286 206.832 142.357C208.712 140.427 212.942 140.321 214.71 141.804Z" fill="#BE7139"/>
<path d="M254.234 297.689C250.015 301.352 243.972 302.386 241.608 299.891C239.244 297.395 239.22 294.021 243.439 290.358C247.658 286.695 250.745 286.709 253.109 289.205C255.473 291.701 258.454 294.027 254.234 297.689Z" fill="#FF3333"/>
<defs>
<linearGradient id="paint0_linear_22_999" x1="361.364" y1="304.058" x2="-28.3939" y2="255.94" gradientUnits="userSpaceOnUse">
<stop stop-color="#FF0000"/>
<stop offset="1" stop-color="#FF0000"/>
</linearGradient>
<linearGradient id="paint1_linear_22_999" x1="73.0608" y1="28.984" x2="20.7323" y2="70.552" gradientUnits="userSpaceOnUse">
<stop stop-color="#FF0000"/>
<stop offset="1" stop-color="#FF0000"/>
</linearGradient>
<linearGradient id="paint2_linear_22_999" x1="294.172" y1="329.305" x2="370.331" y2="284.701" gradientUnits="userSpaceOnUse">
<stop stop-color="#FF0000"/>
<stop offset="1" stop-color="#FF0000"/>
</linearGradient>
<linearGradient id="paint3_linear_22_999" x1="55.1112" y1="209.639" x2="71.0149" y2="237.282" gradientUnits="userSpaceOnUse">
<stop stop-color="#FF0000"/>
<stop offset="1" stop-color="#FF0000"/>
</linearGradient>
<linearGradient id="paint4_linear_22_999" x1="200.242" y1="185.581" x2="303.282" y2="226.479" gradientUnits="userSpaceOnUse">
<stop stop-color="#FF0000"/>
<stop offset="1" stop-color="#FF0000"/>
</linearGradient>
<linearGradient id="paint5_linear_22_999" x1="106.202" y1="238.672" x2="126.376" y2="242.345" gradientUnits="userSpaceOnUse">
<stop stop-color="#FF0000"/>
<stop offset="1" stop-color="#FF0000"/>
</linearGradient>
<linearGradient id="paint6_linear_22_999" x1="115.018" y1="248.625" x2="131.283" y2="256.084" gradientUnits="userSpaceOnUse">
<stop stop-color="#FF0000"/>
<stop offset="1" stop-color="#FF0000"/>
</linearGradient>
<linearGradient id="paint7_linear_22_999" x1="133.63" y1="225.831" x2="152.157" y2="230.465" gradientUnits="userSpaceOnUse">
<stop stop-color="#FF0000"/>
<stop offset="1" stop-color="#FF0000"/>
</linearGradient>
</defs>
</svg>
