<svg width="8" height="14" viewBox="0 0 8 14" fill="none" xmlns="http://www.w3.org/2000/svg">
<path fill-rule="evenodd" clip-rule="evenodd" d="M0.41398 0.405113C0.0469001 0.764307 0 0.828987 0 0.975893C0 1.13283 0.154933 1.29663 2.92801 4.07097L5.85601 7.00037L2.92801 9.92866C0.14994 12.707 0 12.8654 0 13.0234C0 13.1712 0.0462468 13.235 0.41398 13.5949C0.739247 13.9132 0.856613 14 0.961567 14C1.07627 14 1.57929 13.5161 4.51425 10.5821C7.74648 7.35098 7.93333 7.15521 7.93333 7C7.93333 6.84479 7.74648 6.64902 4.51425 3.41791C1.57929 0.483933 1.07627 0 0.961567 0C0.856613 0 0.739247 0.0868 0.41398 0.405113Z" fill="black"/>
</svg>
