<svg width="18" height="19" viewBox="0 0 18 19" fill="none" xmlns="http://www.w3.org/2000/svg">
<path fill-rule="evenodd" clip-rule="evenodd" d="M8.01465 0.172054C7.46517 0.389859 6.89792 0.91037 6.62337 1.44857C6.39293 1.90024 6.30072 2.7793 6.43335 3.25948L6.52683 3.59783H5.54156C4.17952 3.59783 4.19549 3.57906 4.19549 5.17678V6.39482L2.2782 6.39771C0.710616 6.40005 0.32797 6.42541 0.180451 6.53693C0.00342857 6.67064 0 6.77891 0 12.2256C0 17.6175 0.00505263 17.7815 0.175128 17.9059C0.323549 18.0143 1.66674 18.0337 8.97212 18.0326C13.7142 18.0318 17.6386 18.0013 17.6932 17.9649C17.9858 17.7695 18 17.5043 18 12.2144C18 6.92445 17.9858 6.65927 17.6932 6.46384C17.6386 6.42739 16.7312 6.39699 15.6767 6.39618L13.7594 6.39482V5.1969C13.7594 3.56417 13.7869 3.59783 12.4533 3.59783H11.4281L11.5215 3.25948C11.6534 2.78192 11.5622 1.90069 11.3347 1.4547C10.7264 0.26237 9.23756 -0.312818 8.01465 0.172054ZM9.5806 1.16751C10.3756 1.46787 10.7928 2.60959 10.374 3.33906C10.1743 3.68697 9.01417 5.21242 8.96192 5.1959C8.80764 5.14727 7.52517 3.26896 7.44776 2.97816C7.35934 2.64631 7.42376 2.16757 7.60159 1.83527C7.93489 1.21254 8.86719 0.897919 9.5806 1.16751ZM8.67383 2.25103C8.40235 2.46451 8.37519 2.65867 8.57657 2.94613C8.85429 3.34267 9.5188 3.09275 9.5188 2.59181C9.5188 2.44836 9.1246 2.06399 8.97744 2.06399C8.94117 2.06399 8.80457 2.14817 8.67383 2.25103ZM7.96475 5.67302C8.62033 6.54793 8.74033 6.6655 8.97744 6.6655C9.21456 6.6655 9.33456 6.54793 9.99014 5.67302L10.7339 4.68054H11.7053H12.6767V10.8159V16.9512H11.8265H10.9764L10.9468 15.7424C10.9058 14.0651 11.0164 14.1542 8.97744 14.1542C6.93853 14.1542 7.04905 14.0651 7.00809 15.7424L6.9785 16.9512H6.12839H5.2782V10.8159V4.68054H6.24956H7.22102L7.96475 5.67302ZM6.56147 5.8135C6.17738 6.08246 6.39988 6.75572 6.87284 6.75572C7.31765 6.75572 7.52102 6.07136 7.15281 5.8135C7.04256 5.73627 6.90947 5.67302 6.85714 5.67302C6.80481 5.67302 6.67173 5.73627 6.56147 5.8135ZM10.8021 5.8135C10.418 6.08246 10.6405 6.75572 11.1134 6.75572C11.5583 6.75572 11.7616 6.07136 11.3934 5.8135C11.2832 5.73627 11.1501 5.67302 11.0977 5.67302C11.0454 5.67302 10.9123 5.73627 10.8021 5.8135ZM4.19549 12.2144V16.9512H2.61654H1.03759V12.2144V7.47753H2.61654H4.19549V12.2144ZM16.9173 12.2144V16.9512H15.3383H13.7594V12.2144V7.47753H15.3383H16.9173V12.2144ZM6.50265 7.98018C6.33907 8.14384 6.3203 8.40604 6.45429 8.65642C6.56138 8.85645 7.06881 8.89894 7.24511 8.72264C7.42141 8.54634 7.37892 8.03891 7.17889 7.93181C6.92851 7.79783 6.66632 7.8166 6.50265 7.98018ZM8.57657 8.039C8.39161 8.30291 8.3991 8.49879 8.60111 8.68159C8.91862 8.96896 9.5188 8.76532 9.5188 8.37022C9.5188 8.10911 9.24325 7.83843 8.97744 7.83843C8.81062 7.83843 8.66653 7.91052 8.57657 8.039ZM10.7594 7.93587C10.5756 8.04288 10.5433 8.55618 10.7098 8.72264C10.8861 8.89894 11.3935 8.85645 11.5006 8.65642C11.7928 8.11028 11.2934 7.62487 10.7594 7.93587ZM2.21368 8.73473C2.07447 8.99494 2.10027 9.23594 2.28532 9.40339C2.4748 9.57482 2.68818 9.59314 2.93829 9.45933C3.13832 9.35224 3.18081 8.84481 3.00451 8.66851C2.82821 8.49221 2.32078 8.5347 2.21368 8.73473ZM14.9504 8.66851C14.7741 8.84481 14.8166 9.35224 15.0166 9.45933C15.5634 9.75193 16.1196 9.12884 15.6928 8.70198C15.525 8.53425 15.1037 8.51521 14.9504 8.66851ZM6.56147 10.0541C6.16845 10.3293 6.41405 10.9963 6.90839 10.9963C7.29907 10.9963 7.49567 10.341 7.18836 10.0629C6.98247 9.87654 6.81817 9.87428 6.56147 10.0541ZM8.61654 10.0941C8.51729 10.1933 8.43609 10.3557 8.43609 10.455C8.43609 10.5542 8.51729 10.7166 8.61654 10.8159C8.71579 10.9151 8.8782 10.9963 8.97744 10.9963C9.07669 10.9963 9.2391 10.9151 9.33835 10.8159C9.43759 10.7166 9.5188 10.5542 9.5188 10.455C9.5188 10.3557 9.43759 10.1933 9.33835 10.0941C9.2391 9.99482 9.07669 9.91362 8.97744 9.91362C8.8782 9.91362 8.71579 9.99482 8.61654 10.0941ZM10.7508 10.0786C10.4635 10.3961 10.6671 10.9963 11.0622 10.9963C11.3233 10.9963 11.594 10.7208 11.594 10.455C11.594 9.99978 11.0442 9.75437 10.7508 10.0786ZM2.26962 10.8004C2.00869 11.0887 2.1028 11.5012 2.46054 11.6372C2.78238 11.7595 3.11278 11.5285 3.11278 11.1811C3.11278 10.6892 2.58568 10.4512 2.26962 10.8004ZM14.9838 10.7772C14.6768 11.0843 14.9292 11.7181 15.3585 11.7181C15.5474 11.7181 15.8346 11.3728 15.8346 11.1456C15.8346 10.7192 15.2814 10.4797 14.9838 10.7772ZM6.43777 12.2979C6.29206 12.6177 6.40899 12.9673 6.68472 13.0365C7.06728 13.1325 7.35338 12.9437 7.35338 12.5952C7.35338 12.4305 7.30466 12.2469 7.24511 12.1873C7.18556 12.1278 7.00195 12.079 6.8372 12.079C6.60749 12.079 6.5142 12.1302 6.43777 12.2979ZM8.58541 12.2441C8.39901 12.4499 8.39675 12.6142 8.57657 12.8709C8.85176 13.264 9.5188 13.0184 9.5188 12.524C9.5188 12.1333 8.86349 11.9367 8.58541 12.2441ZM10.7098 12.1873C10.6502 12.2469 10.6015 12.4305 10.6015 12.5952C10.6015 12.8249 10.6527 12.9182 10.8204 12.9946C11.3287 13.2262 11.7487 12.8062 11.5171 12.2979C11.4407 12.1302 11.3474 12.079 11.1177 12.079C10.9529 12.079 10.7693 12.1278 10.7098 12.1873ZM2.30075 12.8911C1.83835 13.3535 2.35669 14.0111 2.93829 13.6999C3.19218 13.5641 3.17594 13.0358 2.91221 12.8511C2.64722 12.6654 2.51792 12.6739 2.30075 12.8911ZM15.0423 12.8513C14.7789 13.0358 14.7629 13.5641 15.0166 13.6999C15.2768 13.8392 15.5178 13.8133 15.6853 13.6283C16.0933 13.1774 15.5368 12.5049 15.0423 12.8513ZM2.26962 15.041C1.95916 15.3841 2.1535 15.8685 2.60165 15.8685C2.97429 15.8685 3.11278 15.73 3.11278 15.3574C3.11278 14.9015 2.57765 14.7006 2.26962 15.041ZM15 14.9735C14.8162 15.0805 14.7839 15.5938 14.9504 15.7602C15.1267 15.9365 15.6341 15.894 15.7412 15.694C16.0254 15.1629 15.5193 14.671 15 14.9735ZM9.8797 16.0941V16.9512H8.97744H8.07519V16.0941V15.2369H8.97744H9.8797V16.0941Z" fill="black"/>
</svg>
