<svg width="30" height="24" viewBox="0 0 30 24" fill="none" xmlns="http://www.w3.org/2000/svg">
<path fill-rule="evenodd" clip-rule="evenodd" d="M1.61918 0.0319664C1.29334 0.11396 1.01016 0.34683 0.853096 0.662087C0.607283 1.15529 0.685563 1.65012 1.07015 2.03471C1.41276 2.37732 1.54889 2.39932 3.32884 2.39972C4.2346 2.39988 4.9865 2.42459 5.10732 2.45813C5.33564 2.52155 5.62472 2.73895 5.72174 2.92021C5.75551 2.98335 6.62835 5.89923 7.6614 9.39992C8.78557 13.2094 9.61136 15.9118 9.71817 16.1307C9.97631 16.66 10.6714 17.3416 11.2291 17.6124C12.0421 18.0071 11.6846 17.9879 18.205 17.9869C24.7386 17.986 24.4362 18.0024 25.2417 17.6071C25.8265 17.3202 26.4414 16.7062 26.7218 16.1294C26.8967 15.7698 29.2666 8.37109 29.4669 7.55959C29.5544 7.205 29.5058 6.67432 29.3473 6.25427C29.1709 5.78685 28.5626 5.17468 28.0837 4.98272L27.746 4.84738L18.2798 4.83269L8.81359 4.81795L8.69311 4.41062C8.18167 2.68143 7.99276 2.10748 7.8376 1.81118C7.58858 1.33571 6.91575 0.675649 6.41748 0.418131C5.69259 0.0433904 5.54954 0.022512 3.57555 0.0031531C2.60057 -0.00641379 1.72019 0.00652971 1.61918 0.0319664ZM13.1444 19.3373C12.2118 19.6822 11.6075 20.4621 11.5268 21.4246C11.4681 22.1248 11.7429 22.8304 12.2678 23.3268C13.4665 24.4605 15.3476 24.1164 16.0733 22.6305C16.2569 22.2548 16.2658 22.2079 16.2658 21.6176C16.2658 21.0385 16.2542 20.9741 16.0865 20.6202C15.8381 20.0957 15.4698 19.7199 14.9547 19.4654C14.5713 19.2759 14.4857 19.2558 13.9929 19.2405C13.5592 19.2269 13.391 19.2462 13.1444 19.3373ZM21.5838 19.3282C21.1713 19.465 20.8803 19.6568 20.5528 20.0079C19.6795 20.9442 19.7151 22.372 20.6348 23.2937C22.0148 24.6767 24.3412 23.9186 24.6796 21.9755C24.8129 21.2097 24.5337 20.428 23.9224 19.8562C23.4549 19.4189 23.0894 19.2722 22.3998 19.2453C22.0184 19.2304 21.8169 19.2509 21.5838 19.3282Z" fill="#FF4545"/>
</svg>
