<svg width="19" height="19" viewBox="0 0 19 19" fill="none" xmlns="http://www.w3.org/2000/svg">
<path fill-rule="evenodd" clip-rule="evenodd" d="M8.99824 0.121967C8.73951 0.253523 8.51232 0.476845 8.13028 0.97502C7.72488 1.50372 6.92025 1.66599 6.20231 1.36385C5.9913 1.27507 5.7016 1.18368 5.55855 1.16077C4.90712 1.05663 4.29477 1.50137 4.16316 2.17426C4.12476 2.3708 4.0632 2.68646 4.0264 2.87564C3.97658 3.13189 3.89363 3.29448 3.70134 3.51292C3.37369 3.88519 3.07212 4.038 2.50737 4.11815C1.94149 4.19837 1.70192 4.30105 1.45131 4.57076C1.05962 4.99215 1.02529 5.48214 1.33581 6.21988C1.67806 7.03295 1.47828 7.76016 0.761541 8.31006C0.196795 8.74337 0 9.05415 0 9.51247C0 9.97079 0.196795 10.2816 0.761541 10.7149C1.47555 11.2627 1.67787 11.9924 1.33892 12.7977C1.25013 13.0087 1.15875 13.2984 1.13584 13.4414C1.0317 14.0929 1.47644 14.7052 2.14932 14.8368C2.34586 14.8752 2.66152 14.9368 2.8507 14.9736C3.10696 15.0234 3.26955 15.1064 3.48799 15.2987C3.86025 15.6263 4.01307 15.9279 4.09322 16.4926C4.17344 17.0585 4.27612 17.2981 4.54583 17.5487C4.96658 17.9398 5.4975 17.9769 6.18238 17.6632C6.96696 17.3037 7.71962 17.5099 8.28297 18.2385C8.72047 18.8044 9.02991 19 9.48753 19C9.94516 19 10.2546 18.8044 10.6921 18.2385C11.2544 17.5112 12.0128 17.3025 12.7881 17.6618C13.5144 17.9983 14.069 17.9383 14.4939 17.4772C14.6828 17.2724 14.7587 17.1228 14.8119 16.8507C14.8503 16.6541 14.9119 16.3385 14.9487 16.1493C14.9985 15.893 15.0814 15.7305 15.2737 15.512C15.6014 15.1397 15.9029 14.9869 16.4677 14.9068C17.0336 14.8266 17.2732 14.7239 17.5238 14.4542C17.9149 14.0334 17.952 13.5025 17.6382 12.8176C17.2788 12.033 17.4849 11.2804 18.2135 10.717C18.7795 10.2795 18.9751 9.97009 18.9751 9.51247C18.9751 9.05485 18.7795 8.74541 18.2135 8.3079C17.4863 7.74563 17.2776 6.9872 17.6368 6.21188C17.9604 5.51349 17.9119 4.94874 17.4932 4.54011C17.2474 4.30016 16.8277 4.11822 16.5202 4.11822C16.1446 4.11822 15.7699 3.97524 15.4825 3.72234C15.1148 3.39862 14.9617 3.0954 14.8818 2.53231C14.8016 1.96642 14.699 1.72685 14.4292 1.47624C14.0079 1.08455 13.5179 1.05022 12.7801 1.36074C11.967 1.70299 11.2398 1.50321 10.6899 0.786475C10.1295 0.0560302 9.56439 -0.165959 8.99824 0.121967ZM9.86196 1.54599C10.0394 1.77172 10.3347 2.05799 10.5182 2.18219C11.2015 2.64438 12.1487 2.78412 12.851 2.52634C13.5627 2.26507 13.6129 2.25276 13.6825 2.32244C13.7194 2.35925 13.7749 2.59285 13.8062 2.84162C13.8769 3.40497 14.1188 3.92713 14.4971 4.33266C14.988 4.85907 15.4661 5.10105 16.2061 5.19745C16.8144 5.27665 16.8055 5.24517 16.4737 6.14899C16.1032 7.1581 16.5091 8.40043 17.4472 9.12871C17.6541 9.28927 17.8338 9.45205 17.8465 9.49038C17.8593 9.52878 17.6839 9.70628 17.4567 9.8848C17.2295 10.0634 16.942 10.3596 16.8178 10.5432C16.3556 11.2264 16.2159 12.1737 16.4737 12.8759C16.7349 13.5876 16.7472 13.6378 16.6776 13.7075C16.6408 13.7443 16.4072 13.7999 16.1584 13.8312C15.595 13.9019 15.0729 14.1438 14.6673 14.522C14.1409 15.0129 13.899 15.4911 13.8026 16.231C13.7234 16.8393 13.7548 16.8304 12.851 16.4986C12.1487 16.2408 11.2015 16.3806 10.5182 16.8427C10.3347 16.9669 10.0384 17.2544 9.85986 17.4816C9.68135 17.7089 9.50384 17.8843 9.46545 17.8715C9.42712 17.8587 9.26434 17.679 9.10378 17.4722C8.37549 16.5341 7.13317 16.1282 6.12406 16.4986C5.4124 16.7599 5.3622 16.7722 5.29252 16.7025C5.25571 16.6657 5.20012 16.4321 5.16883 16.1833C5.09655 15.6074 4.85356 15.0929 4.45438 14.6701C3.9543 14.1407 3.53444 13.9311 2.76896 13.8288C2.16062 13.7476 2.16963 13.7796 2.50141 12.8759C2.75919 12.1737 2.61945 11.2264 2.15726 10.5432C2.03306 10.3596 1.74558 10.0634 1.51839 9.8848C1.29113 9.70628 1.11572 9.52878 1.12854 9.49038C1.1413 9.45205 1.32096 9.28927 1.52784 9.12871C2.46593 8.40043 2.87184 7.1581 2.50141 6.14899C2.24014 5.43733 2.22783 5.38714 2.29751 5.31746C2.33431 5.28065 2.56792 5.22505 2.81669 5.19377C3.38004 5.12307 3.9022 4.88116 4.30772 4.50292C4.83414 4.01205 5.07612 3.53386 5.17251 2.7939C5.25171 2.18562 5.22024 2.1945 6.12406 2.52634C6.80831 2.77752 7.72571 2.65263 8.40684 2.21557C8.71197 2.01973 8.87741 1.85346 9.25228 1.36601C9.34976 1.23921 9.45422 1.13551 9.48442 1.13551C9.5147 1.13551 9.68458 1.32019 9.86196 1.54599ZM6.52679 4.68595C5.90366 5.00129 5.61637 5.473 5.61637 6.18079C5.61637 6.67757 5.80041 7.09768 6.15408 7.4082C6.48668 7.70025 6.7946 7.81182 7.27659 7.81493C7.63159 7.81721 7.7535 7.7872 8.03813 7.62734C9.01804 7.07687 9.21814 5.81703 8.45266 5.01696C8.15363 4.70441 7.80186 4.54741 7.32983 4.51581C6.96379 4.49137 6.87335 4.51054 6.52679 4.68595ZM9.05123 9.16324C7.23185 11.5889 5.74329 13.5997 5.74329 13.6317C5.74329 13.6636 5.93164 13.8242 6.16188 13.9885C6.51207 14.2384 6.59368 14.273 6.66165 14.2003C6.86117 13.987 13.2318 5.44533 13.2318 5.39113C13.2318 5.3356 12.464 4.75284 12.3908 4.75284C12.3733 4.75284 10.8706 6.73748 9.05123 9.16324ZM7.64879 5.80167C7.86513 6.03197 7.85441 6.37206 7.62455 6.56975C7.37845 6.78139 7.11229 6.76622 6.87291 6.52685C6.70575 6.35969 6.68468 6.30168 6.71717 6.09848C6.76445 5.80345 6.95776 5.6413 7.26231 5.6413C7.43245 5.6413 7.54008 5.68598 7.64879 5.80167ZM11.3849 11.221C11.0612 11.2852 10.6 11.5712 10.4025 11.8301C9.77026 12.659 10.0465 13.8703 10.977 14.3495C11.1156 14.4209 11.4083 14.4938 11.6275 14.5114C11.9818 14.5398 12.0711 14.5212 12.4313 14.3438C13.064 14.0323 13.3591 13.5604 13.3581 12.8621C13.3564 11.7999 12.4148 11.0168 11.3849 11.221ZM12.0944 12.4903C12.3011 12.697 12.3247 12.8589 12.187 13.1252C12.0813 13.3296 11.9759 13.3836 11.6829 13.3836C11.2159 13.3836 10.9935 12.7623 11.3505 12.4552C11.5935 12.2462 11.863 12.2589 12.0944 12.4903Z" fill="black"/>
</svg>
