<svg width="19" height="12" viewBox="0 0 19 12" fill="none" xmlns="http://www.w3.org/2000/svg">
<path fill-rule="evenodd" clip-rule="evenodd" d="M13.965 0.043819C13.1551 0.080204 11.7016 0.210164 10.735 0.332714C9.251 0.520909 8.54126 0.555964 6.175 0.558244C4.34767 0.559954 3.07809 0.517679 2.52652 0.436644C1.54745 0.292814 1.5237 0.306304 1.52142 1.00788C1.52 1.44877 1.52484 1.45571 1.87625 1.52553C2.07223 1.56439 3.27987 1.59403 4.56 1.59127C6.48822 1.58719 7.27861 1.54035 9.1675 1.31834C12.6749 0.906229 17.0596 0.932069 17.5982 1.36802L17.8125 1.54149L17.8394 5.46499C17.8596 8.4194 17.8948 9.40664 17.9819 9.46202C18.0454 9.5024 18.3005 9.53612 18.5487 9.53698L19 9.5384V4.92853V0.318654L18.7523 0.224509C18.616 0.172734 18.0496 0.108514 17.4936 0.0819141C16.9375 0.0552191 16.2474 0.020924 15.96 0.00562898C15.6726 -0.00976102 14.7749 0.00752902 13.965 0.043819ZM11.685 1.43661C11.3976 1.45485 10.416 1.5547 9.50361 1.65844C5.86017 2.07292 4.23662 2.09506 0.64125 1.7788L0 1.72237V6.34526V10.9682L0.261155 11.0674C0.65778 11.2182 3.18336 11.309 4.94123 11.2356C5.80269 11.1997 7.29837 11.0713 8.265 10.9505C9.75612 10.7641 10.4617 10.7308 12.92 10.7308C14.8678 10.7309 16.0631 10.7718 16.5667 10.8556C17.1907 10.9595 17.3293 10.959 17.3965 10.8531C17.4408 10.7832 17.4777 8.71124 17.4786 6.24874C17.4797 2.6168 17.456 1.75173 17.3524 1.66585C17.0693 1.43082 13.8391 1.30019 11.685 1.43661ZM16.2351 2.50023C16.308 2.5464 16.3414 2.65271 16.3093 2.73631C16.261 2.86237 16.0806 2.8884 15.256 2.8884C14.2638 2.8884 14.0837 2.8314 14.1911 2.55134C14.2324 2.44361 14.4476 2.41369 15.1733 2.41483C15.6843 2.41568 16.1622 2.45406 16.2351 2.50023ZM9.6823 2.89961C10.2645 3.03081 10.8267 3.38107 11.3455 3.93568C12.0357 4.67364 12.1987 5.12423 12.2034 6.3084C12.207 7.19741 12.1798 7.36518 11.9521 7.85082C11.2749 9.29587 9.669 10.1225 8.10046 9.83338C7.25828 9.67824 6.63765 9.32912 6.06812 8.69015C5.42744 7.97119 5.18776 7.32718 5.18206 6.3084C5.17797 5.59305 5.21189 5.42823 5.47903 4.86431C6.01407 3.73504 7.03665 2.95937 8.20392 2.79739C8.71901 2.72595 8.99716 2.74514 9.6823 2.89961ZM3.2775 2.9834C3.2775 3.10006 3.08351 3.13075 2.20875 3.15279C1.18332 3.17853 1.14 3.17169 1.14 2.9834C1.14 2.79511 1.18332 2.78827 2.20875 2.81402C3.08351 2.83606 3.2775 2.86674 3.2775 2.9834ZM8.39145 4.28965C8.35981 4.38114 8.18472 4.58605 8.00232 4.74518C7.72606 4.98629 7.66317 5.11397 7.62498 5.51154C7.58575 5.92033 7.61292 6.02787 7.81527 6.26299C7.94504 6.41395 8.25968 6.60718 8.51437 6.69239C8.89779 6.82064 8.9775 6.88676 8.9775 7.07657C8.9775 7.26752 8.93028 7.3059 8.69535 7.3059C8.49176 7.3059 8.38118 7.24187 8.29853 7.0761C8.14169 6.76155 7.92927 6.658 7.69623 6.78274C7.3111 6.98889 7.5734 7.81064 8.09315 8.02591C8.23992 8.08671 8.36 8.19016 8.36 8.25581C8.36 8.32145 8.42536 8.42937 8.50535 8.49578C8.68195 8.64236 9.12 8.48067 9.12 8.26882C9.12 8.19539 9.23048 8.06286 9.36548 7.97442C9.68496 7.76513 9.91154 7.2186 9.83905 6.83223C9.76505 6.43808 9.36044 6.06577 8.86274 5.9341C8.41937 5.81668 8.33159 5.73299 8.41738 5.50945C8.45348 5.41531 8.58885 5.3584 8.77686 5.3584C9.02614 5.3584 9.09739 5.40894 9.18849 5.65024C9.2795 5.89135 9.34344 5.93676 9.55605 5.91149C10.0699 5.85041 10.1018 5.26226 9.61485 4.82688C9.4733 4.70024 9.24901 4.4902 9.11639 4.36005C8.83633 4.08512 8.47448 4.04997 8.39145 4.28965ZM16.2925 9.6809C16.2925 9.85703 16.2201 9.8729 15.3033 9.89817C14.2996 9.92581 14.082 9.86549 14.1882 9.58904C14.2376 9.46022 14.4028 9.44103 15.2695 9.46392C16.2202 9.489 16.2925 9.5043 16.2925 9.6809ZM3.22658 9.86672C3.44622 10.1314 3.23171 10.2034 2.22395 10.2034C1.39935 10.2034 1.21904 10.1774 1.17068 10.0513C1.07635 9.80554 1.32392 9.73144 2.24466 9.72983C2.88923 9.72878 3.14118 9.76393 3.22658 9.86672Z" fill="black"/>
</svg>
