<svg width="15" height="13" viewBox="0 0 15 13" fill="none" xmlns="http://www.w3.org/2000/svg">
<path fill-rule="evenodd" clip-rule="evenodd" d="M7.48168 0.0807861C6.94148 0.274732 6.534 0.654749 6.28514 1.19679C6.20092 1.38013 6.17577 1.54473 6.17288 1.93183C6.16952 2.37281 6.18617 2.46715 6.31622 2.74563C6.39718 2.91889 6.54917 3.1488 6.65407 3.25659C6.75898 3.36432 6.83453 3.46051 6.82198 3.47028C6.80943 3.48004 6.6692 3.55055 6.51037 3.62694C6.01244 3.86657 5.54757 4.40845 5.29902 5.03917C5.23849 5.19269 5.18347 5.32384 5.17669 5.33062C5.16992 5.33739 5.07242 5.29607 4.95996 5.23873C4.7709 5.14234 4.6483 5.13452 3.32628 5.13452C2.44402 5.13452 1.84039 5.15589 1.74914 5.19038C1.5417 5.26871 1.31258 5.50088 1.31258 5.63261C1.31258 5.87124 1.58848 5.95278 1.75885 5.76455C1.83083 5.68501 1.92056 5.65955 2.12879 5.65955H2.40364L2.42317 6.04602C2.45152 6.60686 2.4479 6.6046 3.30359 6.6046C3.79214 6.6046 4.04189 6.58444 4.08473 6.5416C4.12296 6.50338 4.14774 6.31757 4.14774 6.06907V5.65955H4.45226C4.61974 5.65955 4.78513 5.6879 4.81978 5.72255C4.90887 5.81165 4.90887 7.92258 4.81978 8.01168C4.72994 8.10151 1.88544 8.10151 1.7956 8.01168C1.6843 7.90038 1.72719 7.86467 1.97233 7.86467C2.29438 7.86467 2.41514 7.79306 2.41514 7.60216C2.41514 7.41126 2.29438 7.33964 1.97233 7.33964H1.7326V7.10338C1.7326 6.87714 1.73911 6.86712 1.88638 6.86712C2.03733 6.86712 2.20513 6.75276 2.20513 6.64991C2.20513 6.62119 2.18066 6.55199 2.15079 6.49613C2.10096 6.40304 2.03423 6.39459 1.34749 6.39459C0.577323 6.39459 0.472527 6.42053 0.472527 6.61137C0.472527 6.7819 0.622476 6.86712 0.92253 6.86712H1.20757V7.10338V7.33964H0.705326C0.121965 7.33964 0 7.38506 0 7.60216C0 7.81842 0.122017 7.86467 0.692515 7.86467H1.18195L1.30034 8.12278C1.482 8.5187 1.69201 8.59972 2.53705 8.59972H3.20337L3.05095 8.8101C2.84955 9.08815 2.65282 9.58898 2.55054 10.084C2.44848 10.5781 2.44118 11.1376 2.53574 11.216C2.57323 11.2471 2.78807 11.2796 3.0132 11.2881L3.42251 11.3036L3.52747 11.6242C3.81272 12.4956 4.66888 13.0745 5.55046 12.9922C5.91777 12.9579 6.3411 12.7892 6.65029 12.5538C6.90525 12.3597 7.21911 11.8683 7.29792 11.5398L7.36087 11.2774H9.21365H11.0664L11.0998 11.4553C11.1574 11.7624 11.4388 12.2552 11.6873 12.4843C11.8186 12.6053 12.0602 12.7672 12.224 12.8441C12.4813 12.9646 12.5903 12.9837 13.0219 12.9837C13.4805 12.9837 13.5506 12.9695 13.8709 12.8118C14.5841 12.4607 14.9759 11.8332 14.9814 11.0331C14.9841 10.6418 14.9676 10.571 14.7889 10.2096C14.4764 9.57716 13.9875 9.22035 13.2781 9.10689L12.9316 9.0515L12.5048 8.05447C12.27 7.50608 12.084 7.05135 12.0913 7.04395C12.0987 7.0366 12.2055 7.05313 12.3286 7.0808C12.4786 7.11451 12.5863 7.11294 12.6553 7.07603C12.7526 7.02394 12.7582 6.95968 12.7582 5.90447C12.7582 5.10611 12.7403 4.77004 12.6952 4.72499C12.6023 4.63206 12.289 4.65044 12.0494 4.76285C11.7973 4.88108 11.5815 5.08012 11.4686 5.29843C11.3939 5.44287 11.3768 5.45121 11.2975 5.38181C11.0755 5.18744 10.8748 5.13452 10.3588 5.13431C9.74692 5.1341 9.62113 5.0764 9.29723 4.64745C9.17942 4.49135 9.08302 4.34996 9.08302 4.33316C9.08302 4.31636 9.16456 4.27572 9.26416 4.24281C9.45296 4.18054 9.76556 3.87098 9.76556 3.74634C9.76556 3.70675 9.84825 3.57539 9.94932 3.45442C10.1585 3.20403 10.1788 3.04201 10.031 2.80275C9.97473 2.71187 9.90653 2.5385 9.87939 2.41759C9.83618 2.22517 9.84206 2.19382 9.92632 2.16705C10.2595 2.0613 9.98555 1.04647 9.49003 0.551003C9.12975 0.190675 8.73561 0.0241353 8.19472 0.00360667C7.85949 -0.00909906 7.67704 0.010642 7.48168 0.0807861ZM8.54077 0.54024C8.96799 0.66714 9.38434 1.0921 9.52363 1.54336C9.55602 1.64826 9.53486 1.65509 9.08864 1.68402C8.18837 1.74235 7.87545 2.05548 7.87545 2.89794C7.87545 3.14287 7.85209 3.35766 7.82358 3.3753C7.74477 3.42397 7.34354 3.22876 7.12125 3.03356C6.64384 2.61442 6.50003 1.87812 6.7868 1.32159C7.03939 0.831369 7.58312 0.473719 8.08903 0.465003C8.1921 0.463218 8.39539 0.497083 8.54077 0.54024ZM9.3468 2.33873C9.34748 2.41817 9.40529 2.62246 9.47532 2.79272L9.60259 3.10233L9.4801 3.19868C9.41269 3.25171 9.34244 3.37582 9.32391 3.47448C9.30542 3.57313 9.2524 3.68533 9.20609 3.72371C9.10439 3.80813 8.80276 3.8064 8.54051 3.71982L8.34798 3.65629L8.34982 3.12218C8.35249 2.35653 8.46994 2.19976 9.04364 2.19619C9.33813 2.1944 9.34559 2.19787 9.3468 2.33873ZM7.88559 3.98869C8.15094 4.06818 8.48795 4.36676 8.78974 4.78968C9.05352 5.1593 9.40891 5.48959 9.59246 5.53564C9.6941 5.56116 9.70266 5.58084 9.65263 5.67435C9.62055 5.73431 9.57918 5.90316 9.56064 6.04959C9.52189 6.35658 9.49664 6.36198 9.04758 6.15917C8.73661 6.01872 8.35459 5.68564 8.12978 5.35886C8.00912 5.1835 7.94281 5.13452 7.82605 5.13452C7.56589 5.13452 7.54358 5.35603 7.7705 5.6859L7.92806 5.91492L7.76635 6.17502C7.67746 6.31809 7.5733 6.52642 7.53497 6.63799L7.46525 6.84086L6.43655 6.85509L5.40781 6.86932V6.65437C5.40781 6.29289 5.61436 5.55375 5.85634 5.04941C6.11534 4.50963 6.45766 4.14909 6.83983 4.01379C7.11153 3.91755 7.60842 3.90563 7.88559 3.98869ZM12.2656 6.53724C12.2527 6.5501 12.1917 6.53356 12.1299 6.50049C11.9449 6.40152 11.8136 6.13171 11.8134 5.85024C11.8132 5.61849 11.834 5.57449 12.0363 5.37771L12.2595 5.16077L12.2742 5.83732C12.2823 6.20941 12.2784 6.52438 12.2656 6.53724ZM10.8732 5.67435C10.9837 5.75867 11.1428 6.06991 11.1059 6.12961C11.0639 6.1976 10.6238 6.32933 10.3037 6.3697L10.0281 6.40446V6.23939C10.0281 6.03594 10.1465 5.79784 10.302 5.689C10.4404 5.59203 10.7547 5.58394 10.8732 5.67435ZM3.67521 5.89581V6.13207H3.30769H2.94017V5.89581V5.65955H3.30769H3.67521V5.89581ZM8.85243 6.6078C9.02884 6.69428 9.27482 6.78243 9.39909 6.80364L9.62501 6.84218L9.98214 8.39039C10.1785 9.24188 10.3396 9.98579 10.34 10.0435C10.341 10.1809 10.1524 10.5948 10.0888 10.5948C10.0617 10.5948 10.0248 10.5362 10.0068 10.4645C9.96224 10.2872 9.69447 9.99157 9.50851 9.91455L9.35599 9.85139L9.33603 8.97616C9.31845 8.20327 9.30217 8.07022 9.19674 7.83842C9.03173 7.47563 8.62189 7.10264 8.26455 6.98997C8.1083 6.94072 7.98046 6.87998 7.98046 6.85494C7.98046 6.78626 8.13975 6.48573 8.23174 6.38083C8.30561 6.29662 8.32273 6.29562 8.42232 6.36944C8.48249 6.41407 8.67607 6.52133 8.85243 6.6078ZM11.928 7.96621L12.4974 9.29559L12.0673 9.90583C11.8307 10.2415 11.5896 10.5811 11.5316 10.6605C11.4319 10.7967 11.4026 10.8048 11.0158 10.8048C10.7902 10.8048 10.6056 10.7956 10.6056 10.7843C10.6056 10.773 10.6523 10.6608 10.7095 10.5349C10.7676 10.4067 10.8138 10.1906 10.8145 10.0435C10.8154 9.84262 10.305 7.4572 10.1559 6.9653C10.1346 6.89489 10.1887 6.8731 10.4597 6.84281C10.641 6.82254 10.8957 6.76321 11.0256 6.71102C11.1556 6.65884 11.2836 6.62077 11.3103 6.62644C11.3368 6.63216 11.6148 7.23506 11.928 7.96621ZM8.15073 7.48088C8.28765 7.54414 8.46102 7.66206 8.53589 7.74287C8.78176 8.00811 8.82051 8.18289 8.82051 9.02614V9.80728H8.34798H7.87545L7.87419 9.53164C7.8712 8.89756 7.66812 8.4946 7.23003 8.25346C6.96883 8.10965 6.92084 8.10209 6.15257 8.08314C5.47108 8.06634 5.35294 8.05153 5.37815 7.98595C5.39447 7.94338 5.40781 7.77873 5.40781 7.61996V7.3313L6.65476 7.34862C7.80646 7.36458 7.92071 7.37466 8.15073 7.48088ZM7.01892 8.7021C7.27949 8.86102 7.32076 8.98519 7.35121 9.70233C7.37337 10.2245 7.40161 10.4043 7.4894 10.5818L7.59976 10.8048H5.26999C2.59711 10.8048 2.88205 10.878 3.01903 10.2269C3.12855 9.70622 3.38261 9.12191 3.58438 8.92681C3.90344 8.6182 3.98645 8.60402 5.48657 8.60197C6.74774 8.60024 6.8644 8.60785 7.01892 8.7021ZM13.5292 9.66689C14.2778 9.9429 14.6706 10.7836 14.4092 11.5506C14.2431 12.0383 13.7348 12.4423 13.1978 12.5136C12.8616 12.5581 12.4417 12.4435 12.1395 12.2245C11.9055 12.055 11.6045 11.5893 11.6036 11.3955C11.6032 11.2914 11.6297 11.2774 11.8264 11.2774C12.0354 11.2774 12.0572 11.2916 12.1683 11.5005C12.3403 11.8238 12.5937 11.9781 12.9876 11.9993C13.249 12.0134 13.3487 11.9939 13.518 11.8956C14.3838 11.3928 14.0131 10.0633 13.0093 10.0716C12.8857 10.0727 12.7254 10.1073 12.6532 10.1486C12.4286 10.2769 12.4294 10.2375 12.6575 9.91229C12.8744 9.603 12.8829 9.59733 13.1202 9.60126C13.2532 9.60347 13.4373 9.63297 13.5292 9.66689ZM9.43406 10.4465C9.50084 10.5092 9.55555 10.6176 9.55555 10.6871V10.8136L8.9283 10.7961L8.30099 10.7786L8.1145 10.5977C8.01191 10.4981 7.92796 10.3977 7.92796 10.3745C7.92796 10.3513 8.23946 10.3323 8.62026 10.3323C9.25875 10.3323 9.32196 10.3412 9.43406 10.4465ZM13.3784 10.7187C13.5935 10.9336 13.5215 11.3573 13.2488 11.4816C13.0713 11.5625 12.9073 11.5544 12.7699 11.4581C12.5881 11.3308 12.6306 11.2774 12.9139 11.2774C13.1224 11.2774 13.186 11.256 13.2318 11.1704C13.3593 10.9322 13.2291 10.8222 12.7845 10.7926L12.5745 10.7786L12.7582 10.6584C12.9775 10.515 13.1958 10.5362 13.3784 10.7187ZM4.53925 11.5083C4.76806 11.945 5.37416 12.1388 5.81208 11.9154C6.03669 11.8008 6.2707 11.5585 6.32651 11.3826C6.35355 11.2976 6.40584 11.2774 6.59921 11.2774H6.83852L6.80513 11.4444C6.67576 12.0911 5.92166 12.6052 5.23592 12.5142C4.6148 12.4319 4.16097 12.0311 3.96576 11.3925C3.93022 11.2762 3.93899 11.2719 4.18034 11.2874C4.4133 11.3024 4.43997 11.3188 4.53925 11.5083ZM5.77533 11.3269C5.77533 11.4117 5.54883 11.5399 5.39904 11.5399C5.32045 11.5399 5.18987 11.4816 5.10886 11.4103L4.96153 11.2807L5.36843 11.279C5.59225 11.2781 5.77533 11.2996 5.77533 11.3269Z" fill="black"/>
</svg>
