<svg width="21" height="21" viewBox="0 0 21 21" fill="none" xmlns="http://www.w3.org/2000/svg">
<path d="M5.1875 10.3598C5.1875 9.36891 5.46051 8.44067 5.9348 7.64587V4.27446H2.5634C1.22531 6.01227 0.5 8.1302 0.5 10.3598C0.5 12.5894 1.22531 14.7074 2.5634 16.4452H5.9348V13.0738C5.46051 12.279 5.1875 11.3507 5.1875 10.3598Z" fill="#FBBD00"/>
<path d="M10.5 15.6724L8.15625 18.0162L10.5 20.3599C12.7296 20.3599 14.8475 19.6346 16.5854 18.2965V14.9287H13.2175C12.4158 15.4047 11.4836 15.6724 10.5 15.6724Z" fill="#0F9D58"/>
<path d="M5.93464 13.0738L2.56323 16.4452C2.82815 16.7893 3.11663 17.1188 3.42878 17.4309C5.31753 19.3197 7.82874 20.3598 10.4998 20.3598V15.6723C8.5614 15.6723 6.86245 14.6286 5.93464 13.0738Z" fill="#31AA52"/>
<path d="M20.5 10.3599C20.5 9.75149 20.4449 9.14196 20.3363 8.54829L20.2483 8.06786H10.5V12.7554H15.2442C14.7835 13.6718 14.0752 14.4195 13.2175 14.9287L16.5853 18.2965C16.9294 18.0316 17.2589 17.7431 17.5711 17.431C19.4598 15.5422 20.5 13.031 20.5 10.3599Z" fill="#3C79E6"/>
<path d="M14.2565 6.60331L14.6708 7.01761L17.9854 3.70308L17.5711 3.28878C15.6823 1.40003 13.1711 0.359833 10.5 0.359833L8.15625 2.70358L10.5 5.04733C11.919 5.04733 13.2531 5.59991 14.2565 6.60331Z" fill="#CF2D48"/>
<path d="M10.4999 5.04733V0.359833C7.82884 0.359833 5.31763 1.40003 3.42884 3.28874C3.11669 3.60089 2.82822 3.93038 2.56329 4.27448L5.9347 7.64589C6.86255 6.09108 8.5615 5.04733 10.4999 5.04733Z" fill="#EB4132"/>
</svg>
