<svg width="12" height="13" viewBox="0 0 12 13" fill="none" xmlns="http://www.w3.org/2000/svg">
<path fill-rule="evenodd" clip-rule="evenodd" d="M6.58144 0.0356229C4.89762 0.282946 3.45204 1.49496 2.90955 3.1142C2.57782 4.10426 2.61868 5.20355 3.02367 6.18567C3.08262 6.32855 3.11811 6.45628 3.10255 6.46948C3.08703 6.48272 2.99447 6.52292 2.89686 6.55885C2.79926 6.59478 2.65447 6.68598 2.57507 6.76149L2.43072 6.89881V7.59713C2.43072 7.98122 2.42255 8.30361 2.41259 8.31357C2.40262 8.32354 2.28251 8.29415 2.14566 8.24826C2.00882 8.20236 1.71298 8.14558 1.48828 8.12204C0.999333 8.07085 0.922874 8.09376 0.922874 8.29154C0.922874 8.45207 0.973736 8.47366 1.41936 8.50238C1.89999 8.53335 2.39394 8.7026 2.39394 8.83632C2.39394 8.90086 2.16258 9.01983 1.87907 9.10107C1.69632 9.15344 1.51439 9.16981 1.10676 9.17058C0.605969 9.17157 0.356881 9.13634 0.0678162 9.02369C0.0112169 9.00163 0.00345701 9.02333 0.00345701 9.20338V9.40819L0.144716 9.44622C0.77117 9.61492 1.72177 9.59134 2.19053 9.39551C2.4031 9.30665 2.43072 9.31717 2.43072 9.48701C2.43072 9.69351 2.37872 9.77217 2.18825 9.85382C1.71688 10.0559 0.735423 10.0959 0.231583 9.93359L0 9.85897L0.0109227 10.0671L0.0218453 10.2753L0.279245 10.3395C0.848144 10.4816 1.55403 10.4579 2.12143 10.2777C2.26945 10.2307 2.3996 10.2012 2.41064 10.2123C2.45175 10.2534 2.42884 10.5006 2.3771 10.5745C2.29839 10.6869 2.00698 10.7991 1.61641 10.8673C1.12191 10.9537 0.607367 10.9146 0.0678162 10.7497C0.0119892 10.7326 0.00345701 10.7566 0.00345701 10.9303V11.1306L0.2517 11.1943C0.780953 11.33 1.64028 11.3039 2.12404 11.1375C2.41968 11.0358 2.43072 11.0392 2.43072 11.2315C2.43072 11.4344 2.36496 11.5084 2.09476 11.6094C1.5462 11.8143 0.579196 11.8096 0.0678162 11.5994C0.0111066 11.5761 0.00345701 11.5971 0.00345701 11.7763C0.00345701 11.9736 0.00702434 11.9808 0.122981 12.0169C0.727737 12.2052 1.70975 12.1814 2.22543 11.9659C2.41505 11.8867 2.43072 11.8953 2.43072 12.079C2.43072 12.2992 2.33124 12.3977 2.0079 12.4975C1.46364 12.6657 0.750906 12.6743 0.238938 12.519C0.139751 12.4889 0.0462283 12.4641 0.0310395 12.4639C0.0158507 12.4637 0.00345701 12.5515 0.00345701 12.659V12.8546L0.288476 12.9253C0.714644 13.031 1.52877 13.0234 1.95236 12.9098C2.12415 12.8638 2.34234 12.7839 2.43719 12.7322L2.60971 12.6384L2.73221 12.7141C2.79962 12.7557 3.00344 12.8349 3.18519 12.8901C3.48621 12.9815 3.56804 12.9904 4.10406 12.9901C4.7486 12.9897 5.07033 12.9299 5.44262 12.7412L5.62977 12.6464L5.80512 12.7381C6.15737 12.9223 6.51377 12.9895 7.13813 12.9895C7.60148 12.9895 7.76083 12.9751 7.98966 12.9128C8.34779 12.8152 8.61004 12.6823 8.73313 12.536L8.82986 12.4211V11.4138V10.4066L8.71383 10.2744C8.64998 10.2017 8.53583 10.1106 8.46014 10.072C7.89816 9.7853 6.75551 9.7337 6.08407 9.9647C5.96974 10.004 5.86224 10.0362 5.84517 10.0362C5.82815 10.0362 5.81417 9.75297 5.81417 9.40672V8.77725L5.89692 8.80079C6.33386 8.92506 6.56342 8.95132 7.21168 8.95099C7.79489 8.95073 7.93846 8.93889 8.21716 8.86816C9.29251 8.59517 10.1881 7.97096 10.8127 7.0589L11.0365 6.73221L11.036 6.27876L11.0356 5.8253L10.9121 6.10808C10.5146 7.01845 9.8318 7.7499 8.98083 8.17691C8.04056 8.64876 7.10341 8.72249 5.95208 8.41526L5.81417 8.37845V7.67623C5.81417 6.82107 5.80494 6.7972 5.3979 6.59974C5.01645 6.41468 4.65067 6.35135 4.03289 6.36338L3.52041 6.37335L3.41427 6.1361C3.25205 5.77359 3.13532 5.32962 3.0863 4.88878C2.89425 3.1616 3.96066 1.3996 5.62492 0.694293C6.60671 0.278165 7.68217 0.279893 8.7285 0.699221C9.05184 0.828822 9.18266 0.822497 9.21954 0.675537C9.24996 0.554358 9.18527 0.481356 8.95839 0.380845C8.24779 0.0660372 7.3058 -0.070772 6.58144 0.0356229ZM9.86199 1.08725C9.72364 1.18416 9.76564 1.30887 10.0209 1.5591C10.3487 1.88049 10.6368 2.27558 10.8525 2.69921L11.0365 3.06047V2.63739V2.21435L10.8468 1.94418C10.6239 1.62684 10.1082 1.07861 10.0078 1.05235C9.96938 1.04231 9.90374 1.05801 9.86199 1.08725ZM5.76871 2.64283C5.4189 2.75213 5.21199 3.06492 5.21048 3.48667C5.20942 3.78136 5.26995 3.96889 5.42213 4.14222C5.61642 4.36346 5.94513 4.43989 6.18006 4.31841C6.33787 4.23684 6.53525 3.98558 6.58711 3.80034C6.6561 3.55394 6.61623 3.19783 6.49686 2.99412C6.33474 2.71752 6.01828 2.56483 5.76871 2.64283ZM8.24143 2.6421C8.21109 2.66001 7.90492 3.09011 7.56106 3.59788C7.2172 4.1057 6.69177 4.8801 6.3934 5.31881C6.09503 5.75752 5.85095 6.15107 5.85095 6.1934C5.85095 6.29843 5.91961 6.35856 6.03961 6.35856C6.15406 6.35856 6.09404 6.43892 7.1933 4.81442C7.57761 4.24648 8.0286 3.58373 8.19546 3.3417C8.51656 2.87592 8.55429 2.76066 8.41711 2.6646C8.32348 2.59899 8.31616 2.59804 8.24143 2.6421ZM6.12129 3.1224C6.36211 3.4086 6.21632 4.00853 5.9071 4.00368C5.65945 3.99982 5.50808 3.54496 5.64522 3.21673C5.74183 2.98555 5.96838 2.94065 6.12129 3.1224ZM8.22808 4.6472C7.77157 4.80975 7.57066 5.43234 7.81409 5.92989C7.94762 6.20285 8.11422 6.32966 8.3668 6.35062C8.80455 6.38692 9.12503 6.01897 9.12326 5.48206C9.12131 4.88746 8.68808 4.48343 8.22808 4.6472ZM8.62284 5.10922C8.84861 5.37754 8.76936 5.8694 8.48397 5.97101C8.36331 6.01396 8.29193 5.97586 8.17707 5.80721C8.08748 5.67566 8.06523 5.41009 8.12963 5.24073C8.22727 4.98389 8.46422 4.9207 8.62284 5.10922ZM4.72948 6.78039C5.09486 6.8503 5.41978 6.99586 5.40315 7.08218C5.38547 7.17397 5.20375 7.26746 4.87291 7.35492C4.2882 7.50949 3.41037 7.44156 2.94857 7.20593C2.78116 7.12054 2.76972 7.09454 2.86284 7.01094C3.12815 6.77274 4.07702 6.65553 4.72948 6.78039ZM3.13672 7.6855C3.76814 7.8884 4.69627 7.85762 5.31088 7.61335C5.36781 7.59069 5.42162 7.57219 5.43041 7.57219C5.4392 7.57219 5.4464 7.65428 5.4464 7.75464C5.4464 7.89373 5.42768 7.95452 5.36766 8.01046C5.14807 8.21505 4.31986 8.35237 3.74552 8.27941C3.35433 8.22972 3.08876 8.15654 2.91801 8.05143C2.80606 7.98247 2.79848 7.96471 2.79848 7.77108C2.79848 7.58845 2.80599 7.56745 2.86284 7.59124C2.89826 7.60606 3.02146 7.64847 3.13672 7.6855ZM0.00345701 8.43402C0.00345701 8.66946 0.046927 8.69333 0.212863 8.54891C0.311829 8.46281 0.313742 8.45491 0.259717 8.35583C0.223381 8.28915 0.167996 8.24844 0.103416 8.24094C0.00522229 8.2295 0.00345701 8.23292 0.00345701 8.43402ZM3.54009 8.63919C3.93985 8.70355 4.65482 8.66884 5.00508 8.5681C5.49374 8.42758 5.4464 8.42107 5.4464 8.62871C5.4464 8.8244 5.40919 8.87887 5.20736 8.97853C4.6549 9.25134 3.39956 9.22486 2.92308 8.93039C2.80466 8.85721 2.79848 8.84279 2.79848 8.6403V8.42718L3.02834 8.51051C3.15478 8.55634 3.38504 8.61426 3.54009 8.63919ZM3.61029 9.52397C4.16301 9.6048 4.9244 9.51735 5.38204 9.32052C5.43894 9.29606 5.4464 9.31647 5.4464 9.49635C5.4464 9.67251 5.43335 9.71017 5.34939 9.77622C5.15793 9.92682 4.80362 10.0074 4.25116 10.0258C3.66818 10.0453 3.31939 9.99147 2.99244 9.83149L2.79848 9.73661V9.52231V9.30801L3.05165 9.39367C3.19089 9.44078 3.44226 9.4994 3.61029 9.52397ZM3.00076 10.2532C3.62647 10.4907 4.64552 10.4838 5.27245 10.2378C5.34873 10.2078 5.41904 10.1833 5.42875 10.1833C5.43846 10.1833 5.4464 10.2654 5.4464 10.3658C5.4464 10.5026 5.42746 10.5659 5.37072 10.6187C5.1843 10.7924 4.42328 10.9433 3.9144 10.9073C3.56542 10.8827 3.08615 10.7639 2.9144 10.6594C2.80691 10.5941 2.79848 10.5742 2.79848 10.3862C2.79848 10.2746 2.8026 10.1833 2.80768 10.1834C2.81275 10.1834 2.89962 10.2148 3.00076 10.2532ZM7.89205 10.274C8.14155 10.3399 8.4312 10.4769 8.45179 10.5386C8.4736 10.6041 8.24621 10.7236 7.92802 10.8139C7.33349 10.9826 6.33474 10.9036 5.9345 10.6562C5.86831 10.6154 5.81417 10.5664 5.81417 10.5476C5.81417 10.455 6.20904 10.2971 6.62752 10.2223C6.89963 10.1737 7.62435 10.2033 7.89205 10.274ZM3.57322 11.2529C3.73265 11.2777 4.03061 11.2874 4.28794 11.2761C4.68634 11.2585 4.83422 11.2314 5.38204 11.0757C5.43736 11.06 5.4464 11.0839 5.4464 11.2461C5.4464 11.4194 5.43662 11.4409 5.32688 11.5087C5.26116 11.5493 5.09151 11.6194 4.94992 11.6644C4.72635 11.7356 4.6151 11.7461 4.10406 11.744C3.57179 11.7419 3.48812 11.7325 3.22756 11.6458C2.84776 11.5194 2.79848 11.4719 2.79848 11.2322V11.0422L3.04915 11.1263C3.18703 11.1725 3.42288 11.2295 3.57322 11.2529ZM6.5497 11.2473C7.07646 11.3327 7.74053 11.284 8.21385 11.1254L8.46209 11.0422V11.2385C8.46209 11.4203 8.45326 11.4403 8.34257 11.5087C8.27685 11.5493 8.1072 11.6194 7.96561 11.6644C7.74204 11.7356 7.63079 11.7461 7.11974 11.744C6.58747 11.7419 6.50381 11.7325 6.24324 11.6458C5.86345 11.5194 5.81417 11.4719 5.81417 11.2322V11.0422L6.06241 11.1254C6.19896 11.1712 6.41823 11.226 6.5497 11.2473ZM2.99631 11.9675C3.56565 12.2054 4.67229 12.2036 5.24619 11.9638C5.43173 11.8862 5.4464 11.8957 5.4464 12.093C5.4464 12.3154 5.36564 12.3919 5.01751 12.4994C4.36385 12.7013 3.4829 12.6598 2.97317 12.4031L2.79848 12.3151V12.1135C2.79848 12.0026 2.81301 11.9118 2.83077 11.9118C2.84854 11.9118 2.92301 11.9369 2.99631 11.9675ZM6.31066 12.0492C6.58887 12.1267 6.72079 12.1414 7.13813 12.1414C7.62207 12.1414 7.84744 12.103 8.37934 11.9302C8.45764 11.9047 8.46209 11.9131 8.46209 12.0857C8.46209 12.2135 8.44278 12.2851 8.39773 12.3246C7.99874 12.6745 6.63146 12.7278 6.01644 12.4175C5.82973 12.3233 5.81542 12.2995 5.81472 12.0822C5.81421 11.9131 5.81873 11.9047 5.89692 11.9302C5.94245 11.9449 6.12861 11.9985 6.31066 12.0492Z" fill="black"/>
</svg>
