<svg width="15" height="18" viewBox="0 0 15 18" fill="none" xmlns="http://www.w3.org/2000/svg">
<path fill-rule="evenodd" clip-rule="evenodd" d="M6.73373 0.0249735C5.81158 0.193629 4.96393 0.745182 4.48125 1.49062L4.30625 1.7609L3.80231 1.74653C3.13548 1.72747 2.74943 1.81076 2.16031 2.10064C1.35699 2.49593 0.756108 3.18694 0.453348 4.0636C0.341857 4.3865 0.330506 4.47983 0.328073 5.09436C0.325686 5.69276 0.337668 5.80615 0.432942 6.08539C0.722413 6.93416 1.18171 7.53031 1.8821 7.96618C2.24783 8.19381 2.94718 8.45035 3.20197 8.45035H3.36256L3.37549 10.0191L3.38842 11.5879L3.51527 11.7794C3.75857 12.1469 3.72334 12.1421 6.14055 12.1432C8.13932 12.1441 8.26636 12.1394 8.33658 12.0618C8.42528 11.9638 8.43253 11.8297 8.35483 11.7256C8.30379 11.6573 8.10054 11.6491 6.18857 11.6382L4.07863 11.6261L3.99254 11.5198C3.92402 11.4352 3.90646 11.3408 3.90646 11.0578V10.7021L7.25118 10.7137L10.5959 10.7252L10.6104 10.973C10.6277 11.2685 10.5574 11.5353 10.4491 11.5858C10.4059 11.6059 10.0471 11.6334 9.6515 11.6468L8.93233 11.6712L8.86588 11.7899C8.80629 11.8963 8.80737 11.9208 8.87661 12.0264L8.95377 12.1442H9.73051C10.6068 12.1442 10.7054 12.1172 10.9552 11.8088L11.0914 11.6405L11.1139 10.0568L11.1365 8.47319L11.3867 8.44197C11.9281 8.3744 12.5799 8.0665 13.1055 7.63014C13.5639 7.24945 14.0174 6.48311 14.1579 5.85191C14.2769 5.31689 14.2328 4.53263 14.0551 4.024C13.8808 3.52502 13.689 3.20568 13.3298 2.81594C12.6502 2.07848 11.7039 1.69522 10.6931 1.7481L10.263 1.77063L10.107 1.518C9.69736 0.854556 8.95012 0.310841 8.14955 0.0936248C7.84147 0.010018 7.03045 -0.0293079 6.73373 0.0249735ZM8.16063 0.653647C8.90755 0.917981 9.48433 1.41633 9.82777 2.09415C9.96665 2.36817 10.1226 2.93865 10.1235 3.17582C10.1244 3.42249 10.1652 3.52453 10.2842 3.57876C10.4565 3.65728 10.6078 3.57538 10.6436 3.38416C10.6717 3.23474 10.5776 2.53471 10.5057 2.35777C10.4768 2.28655 10.5087 2.27894 10.8366 2.27894C11.3357 2.27894 11.6074 2.34322 12.0928 2.57611C13.072 3.04586 13.6838 4.0022 13.6896 5.07184C13.6941 5.88579 13.4431 6.48577 12.8504 7.07854C12.2426 7.68626 11.6588 7.93037 10.8211 7.92699C10.4051 7.92533 10.2695 7.90573 9.97557 7.80478C9.57641 7.66771 9.43699 7.65586 9.35698 7.75226C9.28108 7.8437 9.28599 8.03813 9.36617 8.11835C9.4569 8.20903 10.0493 8.40427 10.3481 8.44192L10.5959 8.47319L10.6082 9.31763L10.6204 10.1621H9.94372H9.26703V9.71166C9.26703 9.32124 9.255 9.24916 9.17693 9.1711C9.07035 9.06452 8.96292 9.05839 8.83908 9.15186C8.76106 9.21074 8.74692 9.28308 8.73363 9.69098L8.71827 10.1621H8.09171H7.46515V9.71166C7.46515 9.32124 7.45313 9.24916 7.37506 9.1711C7.32551 9.12155 7.24442 9.081 7.19487 9.081C7.14532 9.081 7.06424 9.12155 7.01469 9.1711C6.93662 9.24916 6.92459 9.32124 6.92459 9.71166V10.1621H6.29394H5.66328V9.73216C5.66328 9.33565 5.65468 9.29353 5.55269 9.19159C5.41859 9.05744 5.33169 9.05222 5.21281 9.1711C5.13475 9.24916 5.12272 9.32124 5.12272 9.71166V10.1621H4.5136H3.90447L3.91673 9.3175L3.92898 8.47287L4.15421 8.4449C4.71906 8.37467 5.25786 8.13034 5.25786 7.94438C5.25786 7.83523 5.11889 7.68455 5.0188 7.68514C4.96447 7.68545 4.75784 7.73933 4.55964 7.80487C4.06453 7.96862 3.31197 7.97695 2.87038 7.82357C2.35874 7.6459 2.05503 7.45608 1.67601 7.07705C1.27879 6.67983 1.08909 6.36585 0.932016 5.84547C0.845796 5.55983 0.83548 5.44474 0.855121 4.98958C0.882554 4.35433 0.981027 4.03896 1.30176 3.55944C1.65119 3.03703 2.1399 2.65913 2.76938 2.42462C3.00516 2.33682 3.188 2.30655 3.58698 2.2893C4.07642 2.26812 4.09926 2.2711 4.06759 2.35182C4.01101 2.49593 3.90646 3.0887 3.90646 3.26533C3.90646 3.35749 3.93182 3.46515 3.96276 3.50457C4.14777 3.73994 4.44702 3.55894 4.44702 3.21163C4.44702 2.93567 4.59585 2.38353 4.7555 2.06726C5.11218 1.3607 5.78207 0.82505 6.57985 0.608555C7.00851 0.492244 7.76548 0.513821 8.16063 0.653647ZM1.62709 11.4129C1.59983 11.4311 1.55551 11.4878 1.52862 11.5389C1.42082 11.7439 1.53726 11.8281 3.34337 12.852C3.80542 13.1139 3.86141 13.1655 3.86141 13.3293C3.86141 13.4758 3.57104 14.0362 3.49518 14.0362C3.46959 14.0362 3.18174 13.8809 2.85547 13.6912C1.02301 12.6258 0.952872 12.5932 0.807236 12.7388C0.746378 12.7997 0.736377 12.9939 0.789758 13.078C0.822552 13.1296 1.44109 13.4958 2.70132 14.2094C2.99237 14.3743 3.23057 14.5232 3.23062 14.5405C3.23084 14.5925 2.91962 15.1066 2.83934 15.1869C2.78871 15.2375 2.71997 15.2541 2.62605 15.2381C2.54983 15.2252 2.01445 14.9398 1.43631 14.604C0.858184 14.2681 0.361543 13.9904 0.332668 13.9869C0.192392 13.9697 0.11829 14.0007 0.0495937 14.1056C-0.0862224 14.3128 -0.00103903 14.3881 1.05333 14.9928C2.22896 15.667 2.47424 15.7931 2.60987 15.7927C2.83259 15.7922 3.07782 15.6862 3.2463 15.5177C3.3427 15.4214 3.43121 15.3425 3.44297 15.3425C3.45477 15.3425 3.98078 15.6404 4.61184 16.0047C5.63297 16.5939 5.75576 16.6769 5.72797 16.7592C5.66648 16.9411 5.6558 17.278 5.70662 17.4321C5.80428 17.728 6.21222 17.9992 6.56075 18C6.6208 18.0001 6.83513 17.9169 7.03698 17.815L7.40403 17.6297L7.75377 17.815C8.14099 18.0201 8.36303 18.0495 8.60484 17.9276C8.79165 17.8333 8.98783 17.6499 9.06999 17.4925C9.15238 17.3348 9.16054 17.0069 9.08648 16.8282C9.05522 16.7527 9.03747 16.6838 9.04697 16.6751C9.05652 16.6663 9.27329 16.5428 9.52866 16.4007C9.78407 16.2585 10.0228 16.0968 10.0592 16.0412C10.1702 15.8718 10.0428 15.6578 9.83092 15.6578C9.79826 15.6578 9.52118 15.7994 9.21522 15.9725C8.90922 16.1455 8.63268 16.2874 8.6006 16.2878C8.53074 16.2886 7.96067 15.9661 7.96067 15.9258C7.96067 15.9102 8.01261 15.8739 8.07612 15.8449C8.13964 15.816 8.47916 15.6238 8.83066 15.4177C9.18216 15.2117 9.82975 14.8351 10.2698 14.5808C10.7099 14.3265 11.0899 14.081 11.1144 14.0352C11.1389 13.9894 11.1594 13.8848 11.16 13.8026C11.1631 13.3235 11.7142 12.7971 12.3994 12.6187C13.28 12.3893 13.9375 12.7621 13.8448 13.4384C13.7545 14.0976 12.8858 14.8517 12.2017 14.8647C12.0265 14.868 11.8725 14.8371 11.7073 14.7654L11.4673 14.6613L11.0091 14.9222C10.3476 15.2989 10.2466 15.4211 10.4382 15.6128C10.5724 15.7469 10.6792 15.7254 11.0956 15.4803L11.4738 15.2577L11.6804 15.3281C11.9798 15.4301 12.5437 15.3908 12.8866 15.2439C13.4703 14.9938 13.9773 14.5109 14.2305 13.9639C14.3522 13.701 14.3742 13.6011 14.3738 13.3138C14.3735 13.0253 14.3539 12.9384 14.2436 12.7357C14.0913 12.4559 13.925 12.3043 13.6127 12.1608C12.7978 11.7861 11.4466 12.2117 10.892 13.0179C10.8207 13.1214 10.7243 13.3355 10.6778 13.4937L10.5931 13.7812L9.13049 14.6282C8.32604 15.0941 7.60529 15.509 7.52885 15.5503L7.38988 15.6253L6.35763 15.0287C5.78991 14.7005 5.09578 14.2995 4.8151 14.1375C4.36733 13.879 4.3085 13.8312 4.33499 13.7481C4.35161 13.6959 4.37562 13.5402 4.38841 13.4019C4.42044 13.0559 4.29908 12.8225 3.98349 12.6232C3.36193 12.2306 1.84192 11.3785 1.76426 11.3791C1.71606 11.3795 1.65434 11.3947 1.62709 11.4129ZM6.21974 15.555C7.41263 16.2416 8.44641 16.8604 8.51709 16.93C8.61921 17.0306 8.63961 17.0818 8.61651 17.1793C8.60056 17.2468 8.54556 17.3375 8.49434 17.3809C8.30483 17.5412 8.50979 17.643 5.30291 15.7956C4.47292 15.3175 3.76956 14.9034 3.73987 14.8754C3.69839 14.8362 3.72267 14.7646 3.84488 14.5655C3.93227 14.423 4.01439 14.3064 4.02732 14.3064C4.04025 14.3064 5.02686 14.8683 6.21974 15.555ZM6.5566 17.1285L6.8504 17.2928L6.74738 17.3763C6.56679 17.5225 6.32529 17.4714 6.2165 17.264C6.17407 17.183 6.19015 16.9642 6.23853 16.9642C6.25186 16.9642 6.39498 17.0381 6.5566 17.1285Z" fill="black"/>
</svg>
