<svg width="21" height="19" viewBox="0 0 21 19" fill="none" xmlns="http://www.w3.org/2000/svg">
<path fill-rule="evenodd" clip-rule="evenodd" d="M5.56937 0.116579C4.81012 0.330472 4.10839 0.728869 3.63472 1.21491C3.31092 1.54698 3.25938 1.65315 3.3512 1.79916C3.54094 2.10101 3.79275 2.06231 4.23326 1.6636C4.95482 1.01054 5.67514 0.740252 6.69468 0.740252C7.42873 0.740252 7.6697 0.785473 8.16496 1.01623C9.27094 1.53136 9.81 2.09718 10.217 3.17058C10.4695 3.83606 10.4927 4.98924 10.2666 5.62843C10.1805 5.87213 9.76156 6.69004 9.3356 7.44596C8.90975 8.20188 8.25172 9.45916 7.87338 10.2399C7.49349 11.024 7.0946 11.7081 6.98243 11.7683C6.83856 11.8454 6.69747 11.8433 6.49936 11.7611C6.27389 11.6675 6.10471 11.3881 5.6298 10.3251C5.30548 9.59916 4.73751 8.49503 4.36764 7.87146C3.2443 5.97758 3.0494 5.51471 2.99972 4.62427C2.96966 4.08493 3.00571 3.69729 3.11519 3.38251C3.30431 2.83893 3.19544 2.51566 2.84024 2.56626C2.33744 2.63797 2.0688 4.58525 2.40665 5.70987C2.49093 5.99061 2.96935 6.92338 3.46967 7.78289C4.53465 9.6122 5.4319 11.5132 5.29257 11.6451C5.23999 11.6948 4.10477 12.3761 2.7698 13.1591C0.0515134 14.7533 -0.12242 14.8802 0.0452132 15.1468C0.107288 15.2456 0.227204 15.3401 0.311692 15.3568C0.39618 15.3735 1.65803 14.6815 3.11591 13.8191L5.76665 12.2509L6.1171 12.4176C6.9753 12.8256 7.73673 12.4247 8.13614 11.3548L8.35614 10.7653L11.2509 9.02558C12.8431 8.0687 14.1731 7.21437 14.2066 7.12703C14.314 6.8466 14.101 6.67513 12.6473 5.87078L11.2212 5.08196L11.1913 4.38347C11.1749 3.99935 11.1763 3.68498 11.1943 3.68498C11.2125 3.68498 12.2997 4.22049 13.6104 4.875C14.9211 5.52951 16.0254 6.06502 16.0645 6.06502C16.1874 6.06502 18.9304 4.4824 19.01 4.36546C19.1417 4.17216 19.096 4.00649 18.8788 3.88997C18.7013 3.79477 18.4663 3.89194 17.3622 4.51758L16.0556 5.25777L13.5183 4.01104C11.4877 3.01319 10.9398 2.70006 10.7745 2.44291C10.0013 1.24016 9.34717 0.673197 8.26494 0.267556C7.50361 -0.0178415 6.28814 -0.0858278 5.56937 0.116579ZM5.97105 1.91371C5.15375 2.17966 4.44593 2.85269 4.23244 3.56681C3.81847 4.95116 4.42672 6.35072 5.67648 6.88934C6.9501 7.4383 8.42689 6.88437 9.10135 5.60484C9.40997 5.01915 9.40997 3.90301 9.10135 3.31731C8.82599 2.79505 8.32928 2.30135 7.84198 2.06573C7.43162 1.86725 6.37687 1.78157 5.97105 1.91371ZM7.38514 2.6568C8.02707 2.89977 8.65257 3.79022 8.65257 4.46108C8.65257 5.13194 8.02707 6.02238 7.38514 6.26535C6.64685 6.54485 5.68629 6.25118 5.18505 5.59284C4.92084 5.24577 4.88717 5.11776 4.88717 4.46108C4.88717 3.80439 4.92084 3.67639 5.18505 3.32932C5.68629 2.67098 6.64685 2.3773 7.38514 2.6568ZM17.6947 6.63385C16.3313 7.45661 15.172 8.19691 15.1185 8.27876C15.0533 8.37852 15.0687 8.4851 15.1653 8.60162C15.3887 8.87139 19.3903 10.8409 19.6419 10.805C19.7907 10.7838 19.8735 10.6883 19.8936 10.5147C19.9212 10.2756 19.7852 10.1868 18.1071 9.34843C17.108 8.84935 16.3141 8.40294 16.3428 8.35637C16.3716 8.3098 17.3522 7.69865 18.5221 6.9982C20.488 5.82101 20.6468 5.70418 20.6179 5.455C20.5971 5.27515 20.5179 5.17747 20.3801 5.16164C20.2656 5.14839 19.0696 5.80404 17.6947 6.63385ZM12.0197 6.38394C12.5552 6.67317 13.014 6.94335 13.0394 6.98433C13.0763 7.04414 9.40016 9.32888 9.04816 9.46495C8.93898 9.50717 9.34758 8.76181 10.281 7.21582C10.6376 6.62515 10.9294 6.07805 10.9294 5.99993C10.9294 5.9219 10.9556 5.85806 10.9878 5.85806C11.0199 5.85806 11.4843 6.09471 12.0197 6.38394ZM10.5421 10.9321C8.27795 12.2809 7.93411 12.5188 7.93411 12.7365C7.93411 12.9627 8.31059 13.1766 11.7815 14.9226C13.8977 15.987 15.8786 16.9931 16.1838 17.1584C16.8536 17.5212 17.1652 17.5093 17.2101 17.119C17.241 16.8514 17.1026 16.7719 13.1596 14.7911C10.0578 13.2327 9.10724 12.7118 9.20278 12.6228C9.4172 12.4229 13.2033 10.2042 13.3299 10.2042C13.3958 10.2042 14.5347 10.7189 15.8608 11.348C18.3866 12.5461 18.7212 12.6357 18.656 12.0961C18.6276 11.861 18.3465 11.7012 16.0421 10.6094C14.6219 9.93661 13.3902 9.38434 13.305 9.38227C13.2198 9.3802 11.9764 10.0777 10.5421 10.9321ZM4.67337 14.4317C2.01406 15.962 1.58201 16.2545 1.58201 16.5241C1.58201 17.0177 1.96448 16.8825 4.05313 15.6506L6.06969 14.4612L8.78364 15.7595C10.2762 16.4735 12.0785 17.3373 12.7886 17.6788C14.7308 18.613 15.5785 19 15.6826 19C15.7343 19 15.8292 18.9015 15.8936 18.7809C15.985 18.6099 15.9785 18.5297 15.8635 18.4146C15.6652 18.2158 6.29238 13.7225 6.0762 13.7225C5.98231 13.7225 5.35103 14.0417 4.67337 14.4317Z" fill="black"/>
</svg>
