<svg width="36" height="40" viewBox="0 0 36 40" fill="none" xmlns="http://www.w3.org/2000/svg">
<path fill-rule="evenodd" clip-rule="evenodd" d="M16.2205 0.0713631C11.8504 0.527185 8.00949 3.21392 5.9874 7.22939C5.64784 7.90358 5.12114 9.44747 4.96208 10.2346C4.386 13.0857 4.75474 15.9891 6.01956 18.5605C6.20811 18.9439 8.68728 22.8865 11.5288 27.3218C15.3624 33.3053 16.7633 35.4316 16.9585 35.5632C17.3151 35.8034 17.8638 35.8038 18.2196 35.564C18.4128 35.4339 19.8325 33.2835 23.6302 27.3685C26.462 22.9581 28.9518 18.9973 29.1631 18.567C30.6353 15.5695 30.8896 12.0929 29.8661 8.96059C29.2094 6.95125 28.1798 5.27067 26.6968 3.78765C23.9206 1.01148 20.1228 -0.335715 16.2205 0.0713631ZM19.0372 7.2085C21.138 7.79013 22.7775 9.46234 23.3082 11.5646C23.3697 11.808 23.4169 12.3858 23.4169 12.8947C23.4169 13.8569 23.3218 14.3664 23.0009 15.1245C22.2761 16.8368 20.7336 18.1553 18.9198 18.6132C18.3612 18.7543 16.8183 18.7543 16.2597 18.6132C14.4458 18.1553 12.9034 16.8368 12.1785 15.1245C11.8576 14.3664 11.7625 13.8569 11.7625 12.8947C11.7625 11.9325 11.8576 11.423 12.1785 10.6649C12.9061 8.94611 14.562 7.53867 16.2632 7.19324C16.4979 7.14552 16.7604 7.0902 16.8465 7.07033C17.1339 7.00375 18.6409 7.09881 19.0372 7.2085ZM7.29016 27.2537C1.60037 28.8421 -1.0136 31.5806 0.35942 34.5145C0.614558 35.0597 1.33193 35.8766 2.01731 36.4024C4.29516 38.1496 8.58854 39.4085 13.9516 39.9015C15.3797 40.0328 19.7997 40.0328 21.2278 39.9015C26.5909 39.4085 30.8843 38.1496 33.1621 36.4024C33.8475 35.8766 34.5649 35.0597 34.82 34.5145C36.2049 31.5553 33.4839 28.7532 27.7308 27.2139C26.962 27.0082 26.7846 26.9831 26.706 27.0692C26.6537 27.1265 25.3317 29.1802 23.7682 31.633C22.2047 34.0858 20.7894 36.2687 20.6231 36.4838C19.1065 38.4462 15.9971 38.4396 14.5303 36.4711C14.3752 36.2629 12.9368 34.0418 11.334 31.5352C9.73115 29.0286 8.37933 26.9802 8.32996 26.9831C8.28051 26.9861 7.81264 27.1079 7.29016 27.2537Z" fill="#FF5555"/>
</svg>
