<svg width="24" height="24" viewBox="0 0 24 24" fill="none" xmlns="http://www.w3.org/2000/svg">
<path fill-rule="evenodd" clip-rule="evenodd" d="M11.1203 0.342411C10.7582 0.616486 10.6452 0.857291 10.6452 1.354V2.00591L9.33871 2.30725C6.88916 2.87226 4.89987 4.15909 3.76355 5.9139C2.89761 7.25115 2.71065 8.07748 2.70503 10.5918C2.70232 11.7296 2.61213 12.9499 2.50432 13.3035C2.22387 14.225 1.47329 15.3608 0.682839 16.0601L0 16.6642V18.2726C0 19.8168 0.0174193 19.8847 0.435484 19.9696C1.01458 20.087 22.6196 20.0877 23.3952 19.9703L24 19.8787V18.2715V16.6642L23.3172 16.0601C22.5267 15.3608 21.7761 14.225 21.4957 13.3035C21.3879 12.9499 21.2977 11.7296 21.295 10.5918C21.2894 8.07909 21.1022 7.25101 20.2394 5.91844C19.0858 4.13725 17.1434 2.87973 14.6613 2.30725L13.3548 2.00591V1.354C13.3548 0.857291 13.2418 0.616486 12.8797 0.342411C12.277 -0.114137 11.723 -0.114137 11.1203 0.342411ZM7.16574 21.1245C7.17639 21.5532 8.28929 22.7984 9.05652 23.2398C11.1012 24.4168 13.991 24.2054 15.6716 22.756C16.2697 22.2401 16.8387 21.4292 16.8387 21.0925C16.8387 20.9926 15.1972 20.9413 12 20.9413C8.25561 20.9413 7.16226 20.9828 7.16574 21.1245Z" fill="black"/>
</svg>
