<svg width="16" height="18" viewBox="0 0 16 18" fill="none" xmlns="http://www.w3.org/2000/svg">
<path fill-rule="evenodd" clip-rule="evenodd" d="M8.84081 0.0597672C8.76606 0.0935657 8.16104 0.668683 7.49635 1.3379C6.21441 2.62858 6.16322 2.69786 6.27481 2.99135C6.31975 3.1096 8.55896 5.39245 8.77163 5.53679C9.10173 5.76088 9.58837 5.47735 9.58837 5.06089C9.58837 4.85244 9.5359 4.78557 8.7435 3.98383C8.36283 3.59873 8.05656 3.2785 8.06286 3.2722C8.06916 3.26591 8.27734 3.28136 8.52553 3.3065C10.1972 3.47599 11.5208 4.09968 12.6948 5.27121C13.6059 6.18032 14.1548 7.09927 14.4808 8.2611C14.5649 8.56057 14.705 9.29829 14.7072 9.45252C14.7077 9.4937 14.5962 9.50915 14.2979 9.50915C13.8322 9.50915 13.6611 9.57126 13.5534 9.77949C13.4598 9.96054 13.4674 10.1371 13.5765 10.3161C13.7015 10.5212 13.9077 10.5965 14.3441 10.5965H14.708V10.7301C14.708 10.8036 14.666 11.0813 14.6147 11.3472C14.0465 14.2914 11.6694 16.5198 8.72062 16.8728L8.4645 16.9034L8.44878 16.4464C8.43342 15.9995 8.4298 15.9863 8.28495 15.8415C8.1575 15.7141 8.10545 15.6934 7.91204 15.6934C7.71862 15.6934 7.66657 15.7141 7.53912 15.8415C7.3945 15.986 7.39065 16.0001 7.37543 16.4418C7.35749 16.9627 7.41154 16.9264 6.80067 16.8273C4.47887 16.4507 2.47461 14.8465 1.59168 12.6579C1.38821 12.1535 1.17944 11.3596 1.13713 10.9295L1.10528 10.6056L1.5379 10.5897C1.8912 10.5767 1.99391 10.5564 2.09825 10.4784C2.39686 10.2553 2.39727 9.77963 2.09907 9.59777C1.98317 9.52709 1.87063 9.50947 1.53519 9.50933C1.21079 9.5092 1.1161 9.49515 1.1161 9.44713C1.1161 9.3089 1.26099 8.55917 1.34825 8.2457C1.55965 7.48664 2.02223 6.56135 2.49287 5.95624C2.60763 5.80872 2.87371 5.50929 3.08416 5.29082C3.36361 5.00082 3.47479 4.85131 3.49631 4.73664C3.56635 4.36331 3.19104 4.01967 2.82397 4.12102C2.60885 4.18041 2.02816 4.75771 1.58625 5.35144C-0.169642 7.71063 -0.487329 10.7102 0.73091 13.4281C1.06106 14.1647 1.68519 15.0511 2.32211 15.6881C3.9665 17.3324 6.15846 18.1456 8.49599 17.9786C10.3968 17.8427 12.0911 17.0733 13.4554 15.7264C14.8402 14.3595 15.6113 12.7079 15.7978 10.7098C15.919 9.41133 15.6391 7.9088 15.0465 6.67751C14.1329 4.77895 12.513 3.32961 10.5175 2.62528C9.98561 2.43757 9.13404 2.25599 8.64826 2.22676C8.41774 2.2129 8.22918 2.19007 8.22918 2.17611C8.22918 2.16211 8.52317 1.85417 8.88254 1.49185C9.27883 1.09221 9.54818 0.783851 9.56712 0.708099C9.6392 0.419725 9.4954 0.150697 9.21164 0.0431851C9.05076 -0.017797 9.00836 -0.0158942 8.84081 0.0597672ZM7.63621 6.16918C7.37643 6.34428 7.36977 6.38207 7.36904 7.68557C7.36863 8.35158 7.3506 8.87486 7.32795 8.87486C7.30575 8.87486 7.18618 8.96602 7.06227 9.07743C6.37538 9.69495 6.51692 10.7553 7.34571 11.2012C7.49572 11.2819 7.603 11.2987 7.9684 11.2988L8.40991 11.2989L9.49272 12.3811C10.5738 13.4614 10.5759 13.4632 10.7976 13.4845C10.9888 13.5029 11.0393 13.4893 11.1618 13.3862C11.24 13.3204 11.3257 13.2008 11.3522 13.1203C11.4501 12.8237 11.3831 12.7318 10.2221 11.57L9.13417 10.4814L9.17649 10.2558C9.25967 9.8127 9.08678 9.35144 8.71971 9.03724C8.61537 8.94794 8.51329 8.87486 8.49286 8.87486C8.47243 8.87486 8.45562 8.33971 8.45553 7.68557C8.45539 6.58595 8.44869 6.48537 8.36691 6.35126C8.26873 6.19015 8.06463 6.06588 7.89835 6.06588C7.8385 6.06588 7.72053 6.11236 7.63621 6.16918Z" fill="black"/>
</svg>
