<svg width="9" height="17" viewBox="0 0 9 17" fill="none" xmlns="http://www.w3.org/2000/svg">
<path fill-rule="evenodd" clip-rule="evenodd" d="M7.63389 0.984198C7.55464 1.01395 7.46034 1.06192 7.42432 1.09083C7.38826 1.11977 5.737 2.77349 3.75484 4.76578C1.36677 7.16601 0.125645 8.44015 0.0760977 8.54227C-0.025334 8.75144 -0.0253723 9.1422 0.0760211 9.35152C0.164194 9.53356 7.33492 16.7633 7.53579 16.8727C7.72662 16.9766 8.22523 16.9691 8.42936 16.8592C8.74906 16.6871 8.91353 16.4044 8.91855 16.0182C8.92054 15.8645 8.89575 15.7288 8.84467 15.6136C8.78508 15.479 8.10514 14.7732 5.81245 12.4659C3.75197 10.3923 2.83797 9.44709 2.79402 9.34451C2.71141 9.15183 2.71156 8.74166 2.79429 8.54859C2.83866 8.44509 3.74354 7.50932 5.81272 5.42721C8.08847 3.13719 8.78504 2.41441 8.84287 2.28304C8.93453 2.07476 8.9407 1.70377 8.85582 1.50455C8.76995 1.303 8.61556 1.13279 8.43411 1.03961C8.23416 0.936954 7.83372 0.909208 7.63389 0.984198Z" fill="#172B4D"/>
</svg>
